<svg width="24" height="24" viewBox="0 0 24 24" fill="none" xmlns="http://www.w3.org/2000/svg">
<g clip-path="url(#clip0_3007_12553)">
<rect width="24" height="24" fill="#EB5757" fill-opacity="0.1"/>
</g>
<path d="M17.9999 7.19994H14.3999V6H9.60002V7.19994H6V8.39998H7.19994V17.4C7.19994 17.5591 7.26322 17.7118 7.37572 17.8243C7.48822 17.9368 7.64081 18 7.80001 18H16.1999C16.3591 18 16.5117 17.9368 16.6242 17.8243C16.7367 17.7118 16.8 17.5592 16.8 17.4V8.39998H18L17.9999 7.19994ZM15.5999 16.8002H8.39988V8.40003H15.5999V16.8002ZM13.7999 15.0002H12.5999V10.2H13.7999V15.0002ZM11.3999 15.0002H10.1999V10.2H11.3999V15.0002Z" fill="#EB5757"/>
<defs>
<clipPath id="clip0_3007_12553">
<rect width="24" height="24" fill="white"/>
</clipPath>
</defs>
</svg>