<svg width="213" height="64" viewBox="0 0 213 64" fill="none" xmlns="http://www.w3.org/2000/svg">
<path d="M26.6626 48.4989C25.9785 48.1744 25.3521 48.0127 24.7835 48.0127C23.9973 48.0127 23.4609 48.2932 23.1732 48.8521C22.9811 49.2236 22.8856 49.804 22.8856 50.5933V51.0518H24.3327C24.3327 50.4397 24.4026 49.9883 24.5437 49.7007C24.7413 49.2881 25.1189 49.0814 25.6753 49.0814C26.0973 49.0814 26.5293 49.1581 26.9702 49.3117C27.4366 49.4765 27.8964 49.6536 28.3506 49.8419V49.454C27.4366 48.9176 26.8736 48.5992 26.6637 48.4989H26.6626Z" fill="#3F7DB5"/>
<path d="M31.3497 51.5217V56.1076H29.8349V53.3591C29.8349 53.3069 29.8161 53.2506 29.7772 53.1913C29.7394 53.1329 29.6917 53.1032 29.6339 53.1032C29.4873 53.1032 29.313 53.4574 29.1098 54.1637L27.7071 53.528L27.957 52.8913C27.8226 52.6784 27.6949 52.573 27.5728 52.573C27.2796 52.573 27.1319 53.0387 27.1319 53.9692C27.1319 54.2876 27.1774 54.567 27.2663 54.8086C27.394 55.1566 27.5961 55.3306 27.8704 55.3306H28.58V55.8251C28.3057 55.8189 27.9948 55.8107 27.6494 55.7974C27.2785 55.7688 26.982 55.6971 26.7576 55.5855C26.3934 55.3962 26.1069 55.13 25.8992 54.785C25.6915 54.4411 25.5871 54.0706 25.5871 53.6765C25.5871 53.1872 25.7271 52.7726 26.008 52.4307C26.3145 52.0479 26.7221 51.8564 27.2318 51.8564C27.4673 51.8564 27.7838 52.0417 28.1791 52.4133L28.2269 52.3427C28.4312 52.0417 28.6256 51.8923 28.8099 51.8923C28.9632 51.8923 29.3052 52.0745 29.8338 52.4399V51.5207H24.3689V56.1066H22.8541V51.5207H22.049V51.0519H31.1665L31.1565 51.5207H31.3486L31.3497 51.5217Z" fill="#3F7DB5"/>
<path d="M31.1678 51.0529L31.1578 51.5217H32.0685V51.0529H31.1678Z" fill="#3F7DB5"/>
<path d="M37.1792 51.5217V51.0529H31.1678L31.1578 51.5217H33.2068V53.4062C33.2068 53.7696 33.3356 53.9528 33.591 53.9528C33.7432 53.9528 34.4195 53.7829 34.8704 53.5208C35.3212 53.2588 35.6677 53.1656 35.8077 53.1656C35.9165 53.1656 36.0053 53.2332 36.0764 53.3693C36.1408 53.4748 36.1719 53.5833 36.1719 53.6959C36.1719 54.0603 36.0087 54.353 35.6833 54.57C35.3945 54.7656 35.0469 54.8618 34.6383 54.8618C33.8642 54.8618 33.0258 54.6376 32.7193 54.1903C32.4949 53.8607 32.3417 53.0571 32.2584 52.2137H31.8075C31.8075 53.2506 31.9263 54.2691 32.1618 54.8352C32.5271 55.7063 33.4811 56.1423 34.4273 56.1423C35.2257 56.1423 35.8043 55.9908 36.1619 55.6868C36.5195 55.3838 36.6983 54.8669 36.6983 54.136C36.6983 52.6804 36.3152 51.9526 35.5478 51.9526C35.3757 51.9526 35.1213 52.0345 34.786 52.1963C34.4506 52.358 34.264 52.4389 34.2251 52.4389C34.1807 52.4389 34.1585 52.3866 34.1585 52.2812V51.5196H37.1781L37.1792 51.5217Z" fill="#3F7DB5"/>
<path d="M36.6232 51.0529V51.5217H37.4194V56.1249H38.9342V51.5217H39.6338V51.0529H36.6232Z" fill="#3F7DB5"/>
<path d="M40.3653 55.693C40.021 55.693 39.7411 55.9509 39.7411 56.2682C39.7411 56.5856 40.021 56.8435 40.3653 56.8435C40.7095 56.8435 40.9905 56.5866 40.9905 56.2682C40.9905 55.9499 40.7106 55.693 40.3653 55.693ZM38.9627 51.0529V51.5217H42.653V51.884L39.6812 52.8125C39.6812 53.7604 39.8889 54.5209 40.3042 55.0921C40.7895 55.7697 41.5213 56.1075 42.4997 56.1075H44.1478V51.5217H44.9918V51.0529H38.9615H38.9627ZM42.6341 55.693H42.402C41.5913 55.346 41.186 54.4155 41.186 52.9015L42.633 52.404V55.693H42.6341Z" fill="#3F7DB5"/>
<path d="M48.7019 48.4989C48.0189 48.1744 47.3926 48.0127 46.8229 48.0127C46.0366 48.0127 45.5002 48.2932 45.2126 48.8521C45.0205 49.2236 44.925 49.804 44.925 50.5933V51.0518H44.0898V51.5207H44.8961V56.1065H46.4109V51.5207L47.3893 51.5012V51.0518C47.2216 51.0539 47.0716 51.0559 46.9373 51.0559C46.6963 51.0559 46.5075 51.0559 46.372 51.0518C46.372 50.4397 46.4431 49.9883 46.5841 49.7007C46.7818 49.2881 47.1594 49.0814 47.7146 49.0814C48.1366 49.0814 48.5686 49.1581 49.0095 49.3117C49.476 49.4765 49.9357 49.6536 50.3899 49.8419V49.454C49.476 48.9176 48.914 48.5992 48.703 48.4989H48.7019Z" fill="#3F7DB5"/>
<path d="M51.4163 51.0529V51.5217C51.102 51.2095 50.78 51.0529 50.4479 51.0529C49.9237 51.0529 49.515 51.3774 49.2219 52.0243C48.8832 51.3764 48.5733 51.0529 48.2912 51.0529H47.3906C47.2229 51.0549 47.073 51.057 46.9386 51.057V51.5043H47.3328C47.3528 51.5043 47.3717 51.5023 47.3906 51.5023C47.5016 51.4982 47.586 51.4992 47.6393 51.5043C47.9914 51.5043 48.2401 51.5535 48.3879 51.6548C48.5666 51.7715 48.6566 51.9875 48.6566 52.2987C48.6566 52.6528 48.2501 52.8289 47.4395 52.8289V54.4196C48.3656 54.4196 48.9498 53.9948 49.1941 53.1472C49.5517 53.9948 50.1392 54.4196 50.9588 54.4196V52.7757C50.5945 52.7757 50.3313 52.7552 50.1725 52.7142C49.9037 52.6426 49.7694 52.4983 49.7694 52.2802C49.7694 52.1267 49.8427 51.967 49.9904 51.7991C50.1369 51.6313 50.2902 51.5473 50.4501 51.5473C50.7444 51.5473 51.0676 51.7776 51.4185 52.2372V55.2068C51.886 55.2774 52.3869 55.4351 52.9144 55.6777V51.5033H53.614V51.0519H51.4185L51.4163 51.0529Z" fill="#3F7DB5"/>
<path d="M57.2556 51.0529V52.0335C56.8658 51.45 56.3627 51.1593 55.7441 51.1593C55.0556 51.1593 54.3204 51.5155 53.5353 52.229L53.8707 53.6959C54.1005 53.4604 54.2982 53.3417 54.4648 53.3417C54.6314 53.3417 54.7769 53.3959 54.9012 53.5055C55.0256 53.614 55.0878 53.745 55.0878 53.8985C55.0878 54.0521 54.9956 54.1852 54.8102 54.3141C54.6247 54.4441 54.4171 54.5762 54.1872 54.7123L54.6369 55.0389L57.2556 53.6867V56.1086H58.7704V51.5227H59.4222V51.0539H57.2556V51.0529ZM55.9896 53.7307C55.9263 53.1646 55.5909 52.8831 54.9834 52.8831H54.9257C55.3288 52.4409 55.7242 52.2198 56.1151 52.2198C56.506 52.2198 56.8947 52.4655 57.2267 52.9537L55.9896 53.7317V53.7307Z" fill="#3F7DB5"/>
<path d="M44.5086 42.3008L45.6181 40.5801L45.1316 39.6527L43.3737 41.4758C44.0144 41.6345 44.3432 41.9682 44.5086 42.3019V42.3008Z" fill="#3F7DB5"/>
<path d="M45.3149 44.2109V43.6694H43.8679C44.0489 43.4739 44.14 43.2559 44.14 43.0123C44.14 42.2476 43.5925 41.8668 42.4964 41.8668C41.649 41.8668 40.5496 42.0992 39.1992 42.5639V43.1269C40.2697 42.7451 41.1049 42.5537 41.7034 42.5537C42.2343 42.5537 42.5008 42.7072 42.5008 43.0123C42.5008 43.2559 42.3797 43.4739 42.1388 43.6694H26.3036V44.2109H27.0832C27.0077 44.2672 26.9355 44.3327 26.8689 44.4095L27.8184 45.6379C28.0816 45.1445 28.3459 44.8988 28.6091 44.8988C28.8278 44.8988 28.9378 44.9991 28.9378 45.2008C28.9378 45.3543 28.8267 45.601 28.6046 45.9409C28.3825 46.2807 28.1993 46.4517 28.056 46.4517C27.8606 46.4517 27.6862 46.292 27.5363 45.9726C27.4841 45.8539 27.3819 45.5764 27.2309 45.1394L26.7445 45.5867C27.212 46.8591 27.8717 47.4937 28.7235 47.4937C29.0244 47.4937 29.3376 47.334 29.6619 47.0146C29.8196 46.8611 30.0605 46.5663 30.3848 46.1292C30.6258 45.8027 30.799 45.6389 30.9046 45.6389C31.0711 45.6389 31.2366 45.7986 31.4021 46.1179V46.943C31.1411 47.1938 30.9679 47.3832 30.8823 47.5142C30.7235 47.7496 30.6447 48.0137 30.6447 48.3054C30.6447 48.719 30.8379 49.0773 31.2244 49.3782H33.0968V48.7425C32.9213 48.8541 32.7958 48.9094 32.7192 48.9094C32.4438 48.9094 32.3061 48.7814 32.3061 48.5245C32.3061 48.3648 32.3582 48.2174 32.4649 48.0813C32.5715 47.9461 32.7081 47.8786 32.8758 47.8786C33.0268 47.8786 33.2211 47.9513 33.4566 48.0966C33.6909 48.243 33.8097 48.3781 33.8097 48.503V49.6904H35.6177V44.2109H36.5217V49.6904H38.3074V44.2109H39.2003V49.3782L41.1226 49.3884C41.9433 49.3956 42.664 49.1765 43.2815 48.7313C43.9523 48.2522 44.2877 47.6442 44.2877 46.9082C44.2877 46.38 44.1211 45.9511 43.7901 45.6215C43.4581 45.2919 43.0105 45.1271 42.4453 45.1271C42.362 45.1271 42.2187 45.1342 42.0155 45.1476L41.5635 46.9082C41.8123 46.8734 42.0155 46.857 42.1732 46.857C43.0327 46.857 43.4625 47.0648 43.4625 47.4814C43.4625 47.898 43.1649 48.2246 42.5685 48.502C42.0644 48.7384 41.5291 48.8664 40.9638 48.8879V44.2099H45.316L45.3149 44.2109ZM31.401 45.1895C30.969 44.8087 30.5525 44.6173 30.1516 44.6173C29.864 44.6173 29.5986 44.7186 29.3565 44.9193C29.3187 44.6183 29.1632 44.3819 28.8911 44.2109H31.401V45.1895ZM33.1645 46.8785V44.2099H33.8086V47.3453C33.6276 47.1231 33.4133 46.9665 33.1645 46.8775V46.8785Z" fill="#3F7DB5"/>
<path d="M26.0471 58.2131C24.6323 58.2683 23.926 58.5652 23.926 59.1016C23.926 59.4384 24.1325 59.8683 24.5468 60.3954L26.0249 59.9021C25.6107 59.9092 25.403 59.7444 25.403 59.4077C25.403 59.1906 25.4963 59.0115 25.6817 58.8702C25.8683 58.729 26.0815 58.6584 26.3247 58.6584C26.4247 58.6584 26.5324 58.6676 26.6468 58.688V62.4396C26.3536 61.7425 25.8617 61.3935 25.1687 61.3935C24.9399 61.3935 24.6056 61.4529 24.167 61.5716C23.7272 61.6903 23.394 61.7497 23.1653 61.7497C22.68 61.7497 22.4367 61.4303 22.4367 60.7916H22.0514V61.2952C22.0514 61.894 22.1302 62.3025 22.2879 62.5195C22.5023 62.8163 22.9132 62.9648 23.5195 62.9648C23.7616 62.9648 24.1192 62.932 24.5912 62.8655C25.0621 62.7999 25.4197 62.7662 25.6629 62.7662C26.1415 62.7662 26.4558 62.8808 26.6057 63.1122V63.6649H28.106V58.2141H26.0493L26.0471 58.2131Z" fill="#3F7DB5"/>
<path d="M36.0521 58.5386V58.2131H28.0385V58.5386H31.9498V59.1118L28.6293 60.1488C28.6293 61.156 28.8569 61.9688 29.3145 62.587C29.8497 63.3046 30.6382 63.6639 31.6821 63.6639H33.4068V59.3677C34.1997 59.5121 34.5962 59.7884 34.5962 60.1979C34.5962 60.4149 34.5007 60.5992 34.3063 60.7506C34.1131 60.9021 33.8999 60.9779 33.6644 60.9779L33.9865 62.7549C34.4429 62.7549 34.8361 62.5277 35.1648 62.0742C35.4646 61.6607 35.6145 61.2338 35.6145 60.7936C35.6145 59.7628 34.8794 59.1784 33.4079 59.0402V58.5376H36.0532L36.0521 58.5386ZM31.9498 63.3967H31.5289C30.9392 63.147 30.5327 62.6792 30.3106 61.9933C30.174 61.5655 30.1063 60.9462 30.1063 60.1354L31.9498 59.5602V63.3967Z" fill="#3F7DB5"/>
<path d="M35.5809 58.2131V58.5386H36.4694V63.6833H37.9475V58.5386H38.7304V58.2131H35.5809Z" fill="#3F7DB5"/>
<path d="M41.5157 58.5386H42.4263V58.2131H38.4728V58.5386H40.5828C40.0753 58.7095 39.6755 59.0514 39.3823 59.5663C39.1258 60.0136 38.9969 60.5111 38.9969 61.0577C38.9969 61.7149 39.2046 62.2881 39.6188 62.7764C40.0753 63.3025 40.6505 63.5666 41.3435 63.5666H42.0831V63.2217C41.6833 63.2217 41.4368 63.1951 41.3435 63.1429C41.0581 62.9914 40.8293 62.6464 40.6583 62.108C40.5151 61.6678 40.444 61.2512 40.444 60.8561C40.444 60.4292 40.5228 59.9788 40.6805 59.5059C40.8871 58.8887 41.1658 58.5672 41.5157 58.5406V58.5386Z" fill="#3F7DB5"/>
<path d="M41.4082 58.2131L41.3982 58.5386H44.1612V60.7425C44.1612 61.0833 44.2689 61.2543 44.4833 61.2543C44.6265 61.2543 44.953 61.1079 45.4639 60.8151C45.9747 60.5224 46.3157 60.376 46.4867 60.376C46.6433 60.376 46.7721 60.4579 46.872 60.6227C46.9575 60.7609 47.0009 60.9083 47.0009 61.0669C47.0009 61.501 46.811 61.85 46.4323 62.1131C46.0824 62.3506 45.6649 62.4683 45.1796 62.4683C44.2789 62.4683 43.647 62.2093 43.2839 61.6893C43.0185 61.3075 42.8441 60.6616 42.7575 59.7536H42.4588C42.4588 62.3874 43.2872 63.7038 44.9441 63.7038C45.8159 63.7038 46.4378 63.5441 46.8132 63.2248C47.1885 62.9054 47.3762 62.3516 47.3762 61.5614C47.3762 60.0014 46.982 59.2203 46.1979 59.2203C46.018 59.2203 45.7448 59.3104 45.3784 59.4926C45.0108 59.6728 44.7909 59.7649 44.7198 59.7649C44.5977 59.7649 44.5377 59.6728 44.5377 59.4906V58.5406H47.9126V58.2151H41.4093L41.4082 58.2131Z" fill="#3F7DB5"/>
<path d="M57.531 58.2131H51.382V58.5386H52.0894L52.2393 58.6256C51.9894 58.7167 51.804 58.7781 51.6829 58.8099L52.015 59.1313C52.3659 58.9921 52.618 58.9235 52.7757 58.9235C52.9256 58.9235 53.0811 58.9695 53.2421 59.0627C53.4031 59.1538 53.4831 59.2664 53.4831 59.3974C53.4831 59.4762 53.4253 59.6339 53.311 59.8693C52.8401 59.9553 52.4514 60.1221 52.1438 60.3719C51.7862 60.6606 51.6074 61.0086 51.6074 61.416C51.6074 61.9217 51.8873 62.3188 52.4436 62.6075C52.9078 62.8511 53.4365 62.9719 54.0295 62.9719H54.6081V62.6955H54.2427C53.964 62.6822 53.7296 62.5 53.5364 62.1479C53.3709 61.8562 53.2899 61.5634 53.2899 61.2717C53.2899 60.9799 53.3831 60.764 53.573 60.6043C53.7618 60.4446 54.0106 60.3647 54.3171 60.3647C54.5459 60.3647 54.768 60.4374 54.9812 60.5828C55.1955 60.7271 55.3033 60.9021 55.3033 61.1069V63.6639H56.7814V58.5386H57.5421L57.531 58.2131ZM55.3033 60.4354C55.1667 60.1672 54.8391 60.0034 54.3171 59.944C54.5748 59.6758 54.7025 59.4435 54.7025 59.2469C54.7025 58.9859 54.4848 58.7495 54.0484 58.5396H55.3022V60.4354H55.3033Z" fill="#3F7DB5"/>
<path d="M52.9032 55.8782C52.1525 55.523 51.4706 55.3449 50.8565 55.3449C50.0281 55.3449 49.4606 55.6418 49.153 56.2334C48.9453 56.6357 48.8431 57.2673 48.8431 58.1292V58.2121H47.9114V58.5376H48.812V63.6629H50.289V58.5376H51.3818V58.2121H50.2468V58.2029C50.2468 57.472 50.3224 57.4679 50.4712 57.1322C50.7077 56.606 51.1675 56.3419 51.8527 56.3419C52.3036 56.3419 52.7966 56.4279 53.3308 56.5989C53.5884 56.6777 54.056 56.8558 54.7345 57.1322V56.9141C53.7495 56.3358 53.1387 55.9898 52.9032 55.8772V55.8782Z" fill="#3F7DB5"/>
<path d="M45.3495 6.77282C45.5816 7.39826 46.1591 7.71455 47.0686 7.71455C47.1441 7.71455 47.2241 7.71251 47.3062 7.70739C47.9914 7.66951 48.5178 7.37266 48.7855 6.87109C49.0376 6.40022 49.0065 5.80856 48.7066 5.39911C48.329 4.8832 48.1625 4.82588 47.7127 4.67029C47.515 4.60171 47.2429 4.50855 46.8587 4.34068C46.0447 3.98651 45.9403 3.02429 45.9547 2.45823C46.0969 2.41831 46.2024 2.30673 46.2235 2.17059C46.2379 2.07642 46.2124 1.98224 46.1513 1.90649C46.0891 1.82972 45.9991 1.78059 45.897 1.76728C45.6849 1.73964 45.4894 1.87374 45.4583 2.06823C45.4339 2.22279 45.5238 2.37532 45.6749 2.44083C45.6526 3.06934 45.7681 4.15029 46.7399 4.57202C47.1341 4.74297 47.4117 4.83919 47.6172 4.90982C48.057 5.06131 48.148 5.09304 48.4756 5.54139C48.7211 5.87714 48.7455 6.36541 48.5356 6.75746C48.3135 7.17305 47.8704 7.41873 47.2885 7.45148C46.3812 7.50266 45.8359 7.26006 45.6193 6.71038C45.7382 6.6336 45.8026 6.50053 45.7815 6.36746C45.7659 6.27329 45.7126 6.19038 45.6293 6.13305C45.546 6.07675 45.4439 6.05218 45.3428 6.06651C45.2406 6.08084 45.1507 6.12998 45.0885 6.20675C45.0274 6.28352 45.0008 6.37667 45.0163 6.47085C45.0419 6.62951 45.1784 6.75132 45.3484 6.77179L45.3495 6.77282Z" fill="#FDB913"/>
<path d="M47.366 8.61941C47.1906 8.50784 46.9496 8.54879 46.8285 8.71052C46.7452 8.82209 46.7386 8.96847 46.8096 9.08619C46.5831 9.30832 46.2399 9.57241 45.8546 9.62462C45.5958 9.65942 45.346 9.58982 45.1138 9.41785C44.1854 8.73202 44.2443 8.02469 44.2732 7.67666C44.2754 7.64595 44.2776 7.61831 44.2798 7.59374C44.2854 7.49547 44.3176 7.4054 44.3587 7.29075C44.4386 7.06555 44.5375 6.7861 44.5197 6.26098C44.4908 5.4257 43.9056 4.84837 43.3548 4.77365C43.3281 4.76955 43.3014 4.76546 43.277 4.76136C42.8739 4.68971 42.5829 4.37341 42.5996 4.0264C42.6118 3.76845 42.7662 3.5412 43.1149 3.26482C43.3525 3.0775 43.7012 3.16655 43.9644 3.28222C43.9411 3.41325 43.9978 3.5453 44.1144 3.62616C44.1977 3.68246 44.2987 3.706 44.4009 3.6927C44.503 3.67837 44.593 3.62923 44.6552 3.55246C44.7818 3.39482 44.7463 3.17167 44.5752 3.05395C44.4331 2.95671 44.241 2.96183 44.1055 3.06112C43.7623 2.90553 43.2903 2.78884 42.9339 3.07136C42.6596 3.28837 42.3419 3.59136 42.322 4.01616C42.2997 4.48908 42.6873 4.91798 43.2248 5.01318C43.2537 5.0183 43.2837 5.02341 43.3148 5.02751C43.7523 5.08688 44.2188 5.56798 44.2432 6.27019C44.2598 6.74925 44.1688 7.00516 44.0955 7.21398C44.0499 7.34091 44.0111 7.45146 44.0044 7.58248C44.0033 7.60705 44.0011 7.63571 43.9978 7.66642C43.9656 8.05028 43.9 8.84768 44.9428 9.61848C45.186 9.79863 45.4503 9.88974 45.7258 9.88974C45.7824 9.88974 45.8413 9.88564 45.8979 9.87848C46.371 9.81501 46.7685 9.50792 47.0262 9.25202C47.1872 9.30217 47.3682 9.24792 47.4671 9.1169C47.5881 8.95517 47.5437 8.73304 47.3682 8.62146L47.366 8.61941Z" fill="#FDB913"/>
<path d="M47.6535 19.3931C48.442 19.343 49.1394 19.5948 49.4892 19.7514C49.5747 19.7893 49.8268 19.9418 50.1245 20.1219C50.7375 20.4925 51.5782 21.0002 52.0512 21.1773C52.3744 21.2981 52.6732 21.3595 52.9375 21.3595C53.134 21.3595 53.315 21.3257 53.475 21.2582C53.7948 21.1241 54.0302 20.859 54.1757 20.471C54.2945 20.1527 54.2823 19.8701 54.138 19.6306C54.0391 19.4668 53.8836 19.3307 53.676 19.2253C53.6793 19.0584 53.556 18.91 53.3783 18.8721C53.2773 18.8506 53.174 18.867 53.0863 18.9171C52.9985 18.9673 52.9375 19.0461 52.9141 19.1393C52.8908 19.2324 52.9086 19.3276 52.963 19.4085C53.0174 19.4893 53.1029 19.5456 53.204 19.5671C53.3372 19.5958 53.4761 19.5559 53.5705 19.4658C53.7193 19.5456 53.8281 19.6439 53.8958 19.7565C53.9991 19.9295 54.0058 20.1424 53.9136 20.3881C53.7948 20.7075 53.6082 20.9214 53.3606 21.0258C53.0552 21.1538 52.6498 21.1251 52.1556 20.9408C51.707 20.773 50.8796 20.2734 50.2744 19.907C49.9479 19.7094 49.7125 19.5671 49.6103 19.5221C49.2327 19.3542 48.4764 19.083 47.6191 19.1403C47.5391 19.0052 47.3714 18.9304 47.206 18.9601C46.9972 18.998 46.8595 19.1853 46.9006 19.3778C46.9417 19.5702 47.1438 19.6971 47.3537 19.6593C47.5025 19.6327 47.618 19.5282 47.6535 19.3942V19.3931Z" fill="#FDB913"/>
<path d="M50.8299 20.907C50.7067 20.8016 50.5268 20.7822 50.3824 20.8559C49.9815 20.5621 49.2563 20.1066 48.7199 20.1966C47.9692 20.3215 47.5072 20.7494 47.515 21.3114C47.5194 21.6502 47.5705 22.0064 47.9048 22.3156C47.8515 22.466 47.9137 22.6329 48.0591 22.7219C48.1247 22.7619 48.1991 22.7813 48.2724 22.7813C48.3979 22.7813 48.5211 22.725 48.5955 22.6216C48.6522 22.5418 48.6722 22.4476 48.6522 22.3534C48.6311 22.2603 48.5733 22.1794 48.4867 22.1272C48.3657 22.0535 48.2091 22.0494 48.0836 22.1149C47.8504 21.8856 47.7982 21.6256 47.7937 21.3073C47.7882 20.8722 48.1524 20.5508 48.7699 20.4474C49.1975 20.3768 49.8405 20.7863 50.2036 21.0514C50.1536 21.1844 50.1914 21.3318 50.3047 21.4281C50.4612 21.5622 50.7056 21.554 50.851 21.4096C50.9965 21.2653 50.9865 21.0401 50.8311 20.906L50.8299 20.907Z" fill="#FDB913"/>
<path d="M45.7058 22.9472C45.6047 22.9277 45.5014 22.9451 45.4148 22.9973C45.3282 23.0495 45.2682 23.1294 45.2471 23.2225C45.226 23.3157 45.2449 23.4109 45.3016 23.4907C45.3682 23.5849 45.4815 23.6443 45.6036 23.6514C45.6158 23.7047 45.6258 23.7599 45.6347 23.8183C45.6503 23.9135 45.537 24.023 45.3726 24.0711C45.1538 24.1356 44.8562 24.0916 44.6785 23.7722C44.4264 23.3208 44.5186 23.0577 44.6874 22.5787C44.7496 22.4026 44.8196 22.202 44.8829 21.9604C45.0284 21.4025 44.8784 20.9961 44.7185 20.7464C44.8163 20.5979 44.7852 20.4086 44.6419 20.2939C44.5642 20.2315 44.4653 20.2018 44.3609 20.2079C44.2576 20.2151 44.1644 20.2581 44.0966 20.3298C43.9567 20.4782 43.9745 20.7034 44.1355 20.8324C44.2354 20.9122 44.3709 20.9378 44.4964 20.904C44.6197 21.1108 44.7307 21.4435 44.6119 21.9C44.5508 22.1354 44.482 22.3299 44.422 22.5029C44.2443 23.0086 44.1266 23.3423 44.4309 23.8889C44.6552 24.2912 45.0073 24.3516 45.1972 24.3516C45.286 24.3516 45.3726 24.3393 45.457 24.3147C45.7591 24.2257 45.9446 24.0066 45.909 23.7814C45.8968 23.7067 45.8835 23.6381 45.869 23.5736C46.0201 23.46 46.0578 23.2563 45.9501 23.1028C45.8935 23.0229 45.8068 22.9687 45.7058 22.9482V22.9472Z" fill="#FDB913"/>
<path d="M48.4814 30.6786C48.5236 30.6919 48.5669 30.6991 48.6102 30.6991C48.6668 30.6991 48.7246 30.6868 48.7768 30.6643C48.87 30.6233 48.94 30.5507 48.9744 30.4606C49.03 30.3142 48.9744 30.1504 48.8423 30.0583C48.9578 29.5782 48.8667 29.2466 48.7612 28.8637C48.7012 28.6447 48.6324 28.3959 48.588 28.0786C48.4591 27.1584 48.6624 26.8472 49.5319 26.6332C50.0594 26.5032 50.578 26.8073 50.8579 27.0161C50.8046 27.1399 50.8301 27.2832 50.9268 27.3836C51.0678 27.531 51.3132 27.5443 51.472 27.4143C51.5498 27.3508 51.5953 27.2638 51.602 27.1686C51.6086 27.0734 51.5742 26.9823 51.5053 26.9106C51.3899 26.7909 51.2033 26.7581 51.0489 26.8267C50.7291 26.5831 50.1194 26.2238 49.4608 26.3865C48.4691 26.6312 48.1682 27.0826 48.3125 28.1124C48.3592 28.4471 48.4303 28.703 48.4925 28.9292C48.5913 29.2906 48.6713 29.5782 48.5757 29.9907C48.4258 30.003 48.2959 30.0941 48.2459 30.2262C48.1748 30.4114 48.2814 30.6151 48.4825 30.6807L48.4814 30.6786Z" fill="#FDB913"/>
<path d="M45.261 26.5933C45.2288 26.5032 45.16 26.4295 45.0667 26.3876C44.8757 26.2995 44.6436 26.3712 44.5481 26.5472C44.5014 26.6322 44.4948 26.7284 44.527 26.8195C44.5592 26.9096 44.628 26.9833 44.7213 27.0253C44.8013 27.0621 44.8934 27.0713 44.9812 27.0529C44.9945 27.1297 44.9889 27.2157 44.9656 27.2976C44.9356 27.403 44.7979 27.7459 44.2982 27.7234C44.0305 27.7111 43.8229 27.6262 43.6796 27.4706C43.4542 27.2249 43.372 26.7929 43.4442 26.2228C43.4886 25.8676 43.4942 25.5287 43.4575 25.2421C43.6085 25.1551 43.6774 24.9811 43.6185 24.8245C43.5486 24.6392 43.3287 24.5399 43.1266 24.6044C42.9256 24.6689 42.8178 24.8716 42.8878 25.0579C42.9333 25.1797 43.0477 25.2687 43.1832 25.2913C43.2065 25.4837 43.2199 25.7877 43.1688 26.1931C43.0877 26.8349 43.191 27.3344 43.4675 27.6354C43.6619 27.8473 43.9362 27.9629 44.2838 27.9783C44.3049 27.9783 44.3248 27.9793 44.3448 27.9793C44.8701 27.9793 45.1489 27.6599 45.2333 27.361C45.2788 27.2003 45.2744 27.0345 45.221 26.8922C45.2277 26.883 45.2333 26.8748 45.2388 26.8646C45.2855 26.7796 45.2921 26.6824 45.2599 26.5923L45.261 26.5933Z" fill="#FDB913"/>
<path d="M48.8047 32.0431C48.9435 31.8947 48.9257 31.6695 48.7647 31.5405C48.6037 31.4126 48.3593 31.4289 48.2194 31.5774C48.1061 31.6982 48.095 31.8732 48.1883 32.0053C47.7252 32.7095 47.8763 33.4834 48.0351 34.3012L48.0373 34.3115C48.0573 34.4118 48.0762 34.5131 48.095 34.6145C48.1583 34.9605 48.0528 35.2911 47.7896 35.5705C47.3654 36.0209 46.5958 36.2779 45.734 36.2553C44.2082 36.2195 43.9239 35.244 43.8472 34.3985C43.8283 34.1876 43.8872 34.0105 44.0227 33.8723C44.2181 33.6727 44.538 33.5786 44.7845 33.5346C44.8512 33.6512 44.98 33.7239 45.1255 33.7239C45.1277 33.7239 45.1299 33.7239 45.1321 33.7239C45.3453 33.7208 45.5153 33.5581 45.5119 33.3616C45.5097 33.2664 45.4686 33.1773 45.3942 33.1118C45.3198 33.0453 45.2221 33.0094 45.1188 33.0115C44.9433 33.0145 44.7945 33.1251 44.7523 33.2786C44.4591 33.3288 44.0705 33.4424 43.8172 33.7004C43.6273 33.8938 43.5452 34.1364 43.5707 34.42C43.6507 35.2972 43.9616 36.4683 45.7274 36.5113C45.7618 36.5113 45.7962 36.5123 45.8307 36.5123C46.7324 36.5123 47.5431 36.2226 47.9995 35.7384C48.3183 35.3996 48.446 34.9963 48.3682 34.5725C48.3494 34.4712 48.3305 34.3698 48.3105 34.2695L48.3083 34.2562C48.1606 33.4967 48.0195 32.7781 48.4149 32.1547C48.5559 32.1885 48.7081 32.1455 48.8036 32.0431H48.8047Z" fill="#FDB913"/>
<path d="M50.017 32.2386C49.7749 32.1107 49.6327 31.9285 49.5528 31.7862C49.6549 31.7063 49.7049 31.5866 49.6849 31.4637C49.6538 31.2693 49.4562 31.1341 49.2463 31.1638C49.0353 31.1925 48.8898 31.3737 48.9209 31.5682C48.9486 31.7381 49.103 31.864 49.2874 31.8701C49.3818 32.0513 49.5594 32.2919 49.8793 32.4608C50.3857 32.7279 50.4867 33.253 50.4301 33.5212C50.3946 33.6922 50.2335 33.9245 50.0037 34.0197C49.8149 34.0986 49.6027 34.075 49.3729 33.9501C49.0175 33.7567 48.9575 33.467 49.0197 33.2602C49.0342 33.2111 49.0575 33.165 49.0863 33.1251C49.1552 33.1793 49.2418 33.2101 49.3318 33.2111H49.3351C49.5461 33.2111 49.7194 33.0534 49.7216 32.8579C49.7216 32.7627 49.6827 32.6726 49.6105 32.6051C49.5383 32.5375 49.4417 32.4997 49.3384 32.4986H49.3351C49.2329 32.4986 49.1374 32.5345 49.0641 32.601C48.9908 32.6675 48.9498 32.7566 48.9486 32.8518C48.9486 32.86 48.9486 32.8671 48.9498 32.8764C48.8576 32.9582 48.7898 33.0667 48.7521 33.1926C48.6666 33.4772 48.7399 33.903 49.2318 34.1712C49.4151 34.2705 49.5972 34.3217 49.7749 34.3217C49.8937 34.3217 50.0092 34.2992 50.118 34.2542C50.4357 34.1221 50.6522 33.8099 50.7022 33.5704C50.7722 33.2326 50.6489 32.5734 50.0159 32.2397L50.017 32.2386Z" fill="#FDB913"/>
<path d="M54.4281 28.9937C54.3337 28.9559 54.2282 28.9548 54.1326 28.9907C53.9572 29.0552 53.8617 29.2241 53.8994 29.3929C53.3097 29.873 53.0521 30.9018 53.0243 31.0195C52.9144 31.4842 52.3302 31.8865 52.1048 31.9551C51.9449 32.0042 50.3413 32.1424 49.9492 31.0707C49.7438 30.5097 49.7527 30.1412 49.8027 29.9232C49.9159 29.9273 50.0225 29.8874 50.0992 29.8106C50.2446 29.6673 50.2369 29.4411 50.0814 29.307C49.9259 29.1729 49.6805 29.18 49.535 29.3233C49.4639 29.3929 49.4273 29.483 49.4306 29.5782C49.434 29.6693 49.4728 29.7533 49.5428 29.8178C49.4728 30.0706 49.4473 30.5005 49.6861 31.1526C50.0581 32.17 51.3208 32.2489 51.6983 32.2489C51.9393 32.2489 52.1115 32.2223 52.1925 32.1977C52.4413 32.1219 53.1554 31.6603 53.2953 31.0737C53.4075 30.6029 53.6718 29.9447 54.0538 29.611C54.1604 29.6816 54.297 29.698 54.4203 29.6519C54.5158 29.6161 54.5913 29.5485 54.6324 29.4615C54.6735 29.3745 54.6746 29.2773 54.6357 29.1892C54.598 29.1012 54.5236 29.0316 54.4292 28.9937H54.4281Z" fill="#FDB913"/>
<path d="M55.4814 25.8543H55.4691C55.4492 25.8573 55.4336 25.8583 55.4225 25.8594C55.4003 25.8594 55.3681 25.8635 55.327 25.8686C55.1071 25.8932 54.6518 25.9443 54.443 25.6219C54.3586 25.4909 54.282 25.368 54.2142 25.2534C54.3153 25.149 54.3408 24.9995 54.2764 24.8705C54.1876 24.6914 53.9577 24.6126 53.7645 24.6945C53.5701 24.7764 53.4846 24.9883 53.5735 25.1664C53.6445 25.3087 53.8044 25.3895 53.9677 25.3721C54.0377 25.4898 54.1176 25.6178 54.2042 25.7519C54.5052 26.2176 55.1038 26.1511 55.3692 26.1214C55.3958 26.1183 55.4181 26.1163 55.4336 26.1153C55.4503 26.1153 55.4758 26.1122 55.5069 26.1091C55.9078 26.0723 56.4597 26.0743 56.6119 26.5124C56.703 26.7755 56.5986 26.9976 56.4953 27.1379C56.2787 27.4327 55.8734 27.6405 55.4636 27.6671C55.0816 27.6917 54.7639 27.5207 54.5563 27.3631C54.6129 27.2454 54.5974 27.1082 54.5119 27.0038C54.383 26.8472 54.1409 26.8154 53.9699 26.9342C53.8 27.0529 53.7656 27.2761 53.8944 27.4327C54.0032 27.5658 54.192 27.6098 54.3564 27.5443C54.584 27.7224 54.9405 27.9251 55.3881 27.9251C55.4192 27.9251 55.4514 27.9251 55.4836 27.922C55.9744 27.8902 56.462 27.6384 56.7252 27.2812C56.9195 27.0161 56.9739 26.7151 56.8762 26.4346C56.6374 25.7468 55.7657 25.8276 55.4791 25.8543H55.4814Z" fill="#FDB913"/>
<path d="M56.4115 21.4086C56.3826 21.251 56.2427 21.1302 56.0672 21.1149C55.964 21.1056 55.864 21.1343 55.7841 21.1947C55.7041 21.2551 55.6552 21.3411 55.6452 21.4352C55.6352 21.5304 55.6663 21.6226 55.7319 21.6963C55.7974 21.77 55.8907 21.815 55.9928 21.8242C56.1383 21.8375 56.2771 21.772 56.3538 21.6604C56.8035 21.7966 57.1178 22.1354 57.371 22.7537C57.5054 23.0833 57.5065 23.6135 57.2055 24.0557C57.0334 24.3086 56.6914 24.6208 56.0439 24.673C55.2532 24.7364 54.6124 24.3853 54.0472 24.0752C53.6274 23.8449 53.2642 23.6463 52.8955 23.635C52.388 23.6217 51.9061 23.7558 51.584 23.8776C51.4618 23.7701 51.2753 23.7466 51.1253 23.8254C50.9399 23.9227 50.8744 24.1407 50.9799 24.3106C51.0854 24.4805 51.3219 24.542 51.5074 24.4447C51.6362 24.3772 51.7106 24.2461 51.7006 24.111C51.9993 23.9994 52.4391 23.8776 52.8856 23.8909C53.1832 23.9001 53.5174 24.0834 53.9039 24.2953C54.4525 24.5962 55.0744 24.9371 55.8507 24.9371C55.9218 24.9371 55.9951 24.934 56.0672 24.9279C56.828 24.8664 57.2333 24.4938 57.4399 24.1919C57.7919 23.676 57.7897 23.0516 57.6309 22.6636C57.4354 22.1845 57.12 21.6113 56.4093 21.4086H56.4115Z" fill="#FDB913"/>
<path d="M56.1441 19.7626C55.9397 19.777 55.3822 19.8445 54.9213 20.1537C54.5038 20.4341 54.2661 20.8313 54.2128 21.3339C54.1673 21.772 54.2783 22.1262 54.5415 22.3872C54.8114 22.6534 55.1812 22.7639 55.4555 22.8089C55.5022 22.9625 55.6521 23.0689 55.8264 23.0689C55.8298 23.0689 55.8331 23.0689 55.8364 23.0689C55.9397 23.0669 56.0352 23.027 56.1074 22.9584C56.1785 22.8898 56.2162 22.7987 56.214 22.7035C56.2118 22.6083 56.1685 22.5203 56.0941 22.4537C56.0197 22.3882 55.9264 22.3545 55.8176 22.3555C55.6732 22.3585 55.5466 22.4343 55.4822 22.551C55.2545 22.5111 54.9536 22.4189 54.7437 22.2111C54.5371 22.0054 54.4505 21.7188 54.4882 21.3574C54.5327 20.9306 54.7326 20.5948 55.0835 20.3594C55.4655 20.1035 55.9219 20.0359 56.1352 20.0185C56.1796 20.1342 56.284 20.2202 56.415 20.2468C56.5161 20.2673 56.6194 20.2499 56.706 20.1987C56.7926 20.1475 56.8526 20.0677 56.8748 19.9755C56.897 19.8824 56.8781 19.7872 56.8226 19.7074C56.7671 19.6275 56.6804 19.5722 56.5794 19.5518C56.395 19.5139 56.2129 19.604 56.1418 19.7626H56.1441Z" fill="#FDB913"/>
<path d="M47.0577 18.693C47.0988 18.606 47.1021 18.5087 47.0643 18.4207C47.0266 18.3316 46.9544 18.262 46.86 18.2231C46.7656 18.1853 46.6601 18.1822 46.5646 18.217C46.468 18.2518 46.3925 18.3183 46.3503 18.4053C46.2936 18.5231 46.3114 18.6582 46.3925 18.7605C46.2614 18.9038 46.0615 19.0472 45.8139 18.9816C45.5751 18.9182 45.5407 18.6643 45.5362 18.5579C45.5262 18.2805 45.6739 17.9406 45.9394 17.8516C46.177 17.7717 46.438 17.7789 46.6979 17.785C47.011 17.7932 47.3075 17.8014 47.5385 17.6458C47.5741 17.6212 47.6163 17.5956 47.6618 17.567C48.0916 17.3008 48.8923 16.8044 48.3081 15.6477C48.2993 15.6323 48.096 15.2863 47.4963 15.2986C47.413 15.1584 47.2376 15.0857 47.0654 15.1246C46.9655 15.1471 46.8811 15.2045 46.8278 15.2863C46.7745 15.3682 46.7589 15.4634 46.7834 15.5556C46.8078 15.6477 46.87 15.7255 46.9588 15.7746C47.0477 15.8237 47.151 15.8381 47.2509 15.8156C47.3931 15.7828 47.4997 15.6825 47.533 15.5525C47.9294 15.5525 48.0549 15.7541 48.0583 15.7603C48.5391 16.7133 47.9417 17.0838 47.4986 17.3571C47.4519 17.3858 47.4086 17.4124 47.3719 17.438C47.2176 17.5414 46.9799 17.5353 46.7034 17.5271C46.4369 17.5199 46.1337 17.5107 45.8416 17.609C45.4429 17.742 45.2419 18.2006 45.2553 18.564C45.2675 18.9018 45.4463 19.1495 45.7339 19.2253C45.8016 19.2427 45.8694 19.2519 45.936 19.2519C46.1826 19.2519 46.428 19.126 46.629 18.8957C46.8034 18.9264 46.9821 18.8424 47.0543 18.6909L47.0577 18.693Z" fill="#FDB913"/>
<path d="M53.3056 13.412C53.5432 14.7827 54.134 15.1522 54.6549 15.4787C54.9136 15.6405 55.158 15.794 55.3479 16.0612C55.6333 16.4625 55.7155 16.9057 55.5766 17.2752C55.4656 17.571 55.2235 17.7881 54.897 17.8884C54.4083 18.0388 53.8531 17.8198 53.5455 17.6621C53.5743 17.5301 53.5188 17.3919 53.4022 17.31C53.2334 17.1903 52.9902 17.2199 52.8603 17.3766C52.7303 17.5321 52.7625 17.7563 52.9324 17.8761C53.069 17.9723 53.2589 17.9733 53.3955 17.8802C53.6798 18.0276 54.0996 18.1955 54.5394 18.1955C54.696 18.1955 54.8459 18.174 54.9847 18.131C55.3945 18.0051 55.6977 17.7307 55.8376 17.3592C56.0064 16.9139 55.912 16.3898 55.58 15.921C55.3601 15.6108 55.0802 15.4358 54.8104 15.2669C54.3128 14.9557 53.7976 14.6332 53.5788 13.3721C53.5033 12.9381 53.6165 12.6198 53.9064 12.4509C54.2951 12.2257 54.9658 12.2953 55.4678 12.6136C55.8132 12.8327 56.0197 13.1326 56.0542 13.4612C55.922 13.5001 55.821 13.6024 55.7932 13.7304C55.751 13.9228 55.8865 14.1112 56.0964 14.1501C56.1974 14.1685 56.3007 14.1501 56.3862 14.0979C56.4717 14.0446 56.5306 13.9648 56.5517 13.8717C56.5872 13.7079 56.4973 13.5482 56.3351 13.4796C56.3074 13.0589 56.0564 12.6781 55.6255 12.4048C55.028 12.025 54.2418 11.9544 53.7576 12.2359C53.3722 12.4601 53.2112 12.8787 53.3045 13.4131L53.3056 13.412Z" fill="#FDB913"/>
<path d="M52.6439 16.3683C53.097 16.3448 53.4157 16.1083 53.5212 15.7203C53.64 15.2792 53.4468 14.7428 53.0981 14.5493C52.5339 14.2361 52.2208 14.2115 51.419 14.4214C50.8459 14.5718 50.6627 14.5933 50.4905 14.4111C50.5783 14.3016 50.5916 14.1542 50.5205 14.0324C50.4717 13.9485 50.3906 13.887 50.2918 13.8594C50.1929 13.8318 50.0885 13.842 49.9975 13.887C49.9064 13.9321 49.8398 14.0068 49.8098 14.0979C49.7798 14.189 49.7909 14.2852 49.8398 14.3692C49.9208 14.5074 50.0919 14.5811 50.2573 14.5493C50.5405 14.8759 50.8426 14.837 51.4956 14.666C52.2619 14.4654 52.4829 14.5043 52.9559 14.7674C53.1958 14.9004 53.3402 15.3334 53.2525 15.6579C53.2003 15.8534 53.0492 16.0909 52.6294 16.1124C52.3918 16.1247 52.2219 16.0735 52.1208 15.9599C52.0442 15.8729 52.0031 15.749 51.9998 15.5903C52.133 15.5576 52.2396 15.4624 52.2752 15.3375C52.3018 15.2454 52.2874 15.1492 52.2363 15.0673C52.1841 14.9854 52.1008 14.926 52.0009 14.9014C51.7954 14.8513 51.5833 14.9649 51.5278 15.1543C51.4812 15.315 51.5644 15.4829 51.7221 15.5596C51.7221 15.793 51.7832 15.9824 51.9065 16.1216C52.052 16.2864 52.273 16.3693 52.5617 16.3693C52.5884 16.3693 52.6172 16.3693 52.645 16.3673L52.6439 16.3683Z" fill="#FDB913"/>
<path d="M50.2647 11.2061L50.3113 11.2215L50.2647 11.2072C50.1247 11.5777 49.9659 11.9974 49.9693 12.4539C49.9793 13.8133 51.1331 13.8379 51.1475 13.8379C51.7084 13.8051 52.1226 13.6219 52.3791 13.2923C52.6712 12.9156 52.6923 12.4396 52.6545 12.0967C52.8033 12.0158 52.8766 11.8531 52.8311 11.6975C52.7756 11.5081 52.5624 11.3955 52.3569 11.4467C52.257 11.4713 52.1737 11.5306 52.1226 11.6135C52.0715 11.6965 52.0582 11.7917 52.0848 11.8838C52.1237 12.0148 52.237 12.1121 52.3791 12.1387C52.4091 12.4355 52.3902 12.8399 52.1537 13.1439C51.9482 13.4069 51.6062 13.5543 51.142 13.582C51.1053 13.582 50.2558 13.5482 50.248 12.4519C50.2447 12.0394 50.389 11.6596 50.5279 11.2911C50.7822 10.6176 51.0465 9.92047 49.9948 9.42094C49.3707 9.12409 48.8865 9.05141 48.5567 9.20495C48.5067 9.22747 48.4611 9.25613 48.4178 9.29196C48.4145 9.29196 48.4101 9.28991 48.4067 9.28991C48.1968 9.25818 47.9969 9.39023 47.9625 9.58369C47.9459 9.67787 47.9692 9.77204 48.0291 9.84881C48.0891 9.92661 48.1791 9.97677 48.2801 9.99314C48.3823 10.0085 48.4845 9.987 48.5678 9.9307C48.6522 9.87543 48.7077 9.79251 48.7243 9.69936C48.741 9.60928 48.7177 9.51818 48.6622 9.44243C48.6688 9.43834 48.6755 9.43527 48.6832 9.4322C48.8532 9.35542 49.1963 9.32983 49.8671 9.6492C50.7033 10.0464 50.529 10.508 50.2647 11.2082V11.2061Z" fill="#FDB913"/>
<path d="M47.0455 3.37434C47.2532 3.32828 47.3809 3.13584 47.332 2.94544C47.3109 2.86355 47.2576 2.79088 47.1832 2.74072C47.2998 2.6015 47.5186 2.48583 47.8196 2.40394C48.6658 2.17465 49.3621 2.91064 49.4643 3.06521C49.4743 3.07954 49.4876 3.11229 49.502 3.14607C49.5942 3.36411 49.7652 3.77151 50.5715 4.096C51.4621 4.45529 51.6731 4.89136 51.7253 5.47892C51.7586 5.85664 51.1701 6.34491 50.6959 6.73901C50.4249 6.9642 50.1906 7.15869 50.0828 7.32043C49.8796 7.62547 49.9662 8.14137 50.0806 8.53035C49.9507 8.62555 49.8996 8.79036 49.9596 8.93469C50.0173 9.07697 50.165 9.165 50.3216 9.165C50.3671 9.165 50.4127 9.15784 50.4571 9.14248C50.657 9.07288 50.7581 8.86713 50.6825 8.6839C50.6292 8.55287 50.496 8.46382 50.346 8.45563C50.2761 8.212 50.1584 7.69712 50.3194 7.45452C50.406 7.3235 50.6381 7.13208 50.8824 6.92838C51.4288 6.47491 52.0474 5.96207 52.0019 5.45743C51.943 4.79514 51.6953 4.27002 50.6825 3.86159C49.9829 3.57907 49.8385 3.23718 49.7608 3.05292C49.7408 3.00584 49.7241 2.96591 49.7008 2.93111C49.5809 2.74891 48.7569 1.88292 47.7407 2.15725C47.3165 2.2719 47.0322 2.44591 46.8956 2.67418C46.8856 2.67521 46.8756 2.67623 46.8656 2.6793C46.7657 2.70182 46.6802 2.75812 46.6257 2.83899C46.5713 2.91985 46.5547 3.01607 46.5791 3.1082C46.628 3.29962 46.8367 3.41836 47.0444 3.3723L47.0455 3.37434Z" fill="#FDB913"/>
<path d="M51.522 9.30836C51.3121 9.8171 51.3854 10.1764 51.4553 10.5265C51.4798 10.6452 51.502 10.7588 51.5131 10.8766C51.5397 11.1581 51.3909 11.6412 51.2921 11.9247C51.1377 11.9299 51.0011 12.0179 50.9445 12.152C50.9079 12.2411 50.9101 12.3373 50.9523 12.4243C50.9945 12.5113 51.0711 12.5778 51.1666 12.6116C51.211 12.627 51.2588 12.6351 51.3043 12.6351C51.3576 12.6351 51.4109 12.6249 51.462 12.6044C51.5564 12.5655 51.6286 12.4949 51.6652 12.4069C51.7241 12.2646 51.6786 12.1049 51.5531 12.0087C51.6786 11.6494 51.8174 11.1693 51.7874 10.8551C51.7752 10.724 51.7496 10.5992 51.7252 10.4773C51.6597 10.1498 51.5964 9.84064 51.7785 9.39946C51.9684 8.93985 52.3938 8.7382 53.0445 8.80269C53.4499 8.84158 53.712 9.21009 53.763 9.81301C53.7875 10.1027 53.6165 10.334 53.4577 10.4845C53.3388 10.421 53.1911 10.42 53.0701 10.4845C52.9801 10.5316 52.9168 10.6084 52.8902 10.7005C52.8635 10.7926 52.8768 10.8888 52.929 10.9707C53.0356 11.1407 53.2722 11.199 53.4565 11.1018C53.612 11.0188 53.6842 10.8458 53.6309 10.6892C53.8419 10.4999 54.074 10.1969 54.0396 9.79458C53.9774 9.06781 53.6165 8.60206 53.0734 8.54985C52.2927 8.4741 51.7552 8.73717 51.5186 9.3104L51.522 9.30836Z" fill="#FDB913"/>
<path d="M59.4153 22.9697C59.3509 22.0965 58.7912 21.1292 58.3703 20.9101C57.9194 20.6757 58.1115 20.0871 58.2526 19.6562C58.2703 19.6009 58.2881 19.5487 58.3025 19.4996C58.4691 18.9519 58.5246 18.1914 57.845 17.6744C57.2642 17.2333 57.3408 15.7756 57.4163 15.5627C57.5018 15.3211 57.8739 14.058 56.8177 12.9084C55.9793 11.9954 56.0826 11.3914 56.1448 11.0311C56.1536 10.982 56.1603 10.9369 56.1659 10.896C56.1703 10.8602 56.1759 10.8192 56.1836 10.7742C56.2414 10.3975 56.3502 9.69527 55.5728 9.2244C55.4629 9.15786 55.3541 9.09644 55.2474 9.03605C54.6122 8.67676 54.1091 8.39219 53.9848 7.35525C53.8226 5.99895 53.4262 5.24351 52.3567 4.24548C51.8225 3.74697 51.6915 3.21673 51.5849 2.7909C51.4816 2.37633 51.385 1.9853 50.9219 1.85326C50.5288 1.74168 50.0357 1.71507 49.5992 1.69255C49.1406 1.66798 48.7075 1.64546 48.532 1.53286C48.4165 1.45814 48.3132 1.40798 48.2122 1.35987C47.9667 1.24113 47.7135 1.11727 47.2127 0.591126C46.8196 0.178604 46.2276 0.0864775 45.8001 0.0823829C45.2071 0.0762412 44.6396 0.238998 44.4852 0.392542C44.4064 0.471361 44.3231 0.590101 44.2265 0.727267C44.0499 0.979079 43.83 1.29231 43.6201 1.36396L43.5479 1.38955C43.227 1.50113 43.0348 1.56869 42.4607 1.55231C41.7933 1.53082 41.4046 2.0979 41.3168 2.66704C41.2491 3.10515 41.2424 3.52689 41.2424 3.53201V35.0812C41.2424 35.1304 41.2424 36.2891 42.2253 37.2022C42.9738 37.8972 44.0765 38.2504 45.5047 38.2504C47.2815 38.2504 49.6514 37.757 50.8464 35.4037L50.8564 35.3842C50.8719 35.3545 50.8819 35.333 50.8897 35.3218C50.9052 35.2993 50.9274 35.2593 50.9574 35.2051C51.1851 34.7946 51.8792 33.5448 53.5939 33.0462C55.6528 32.4474 55.966 31.9633 56.1881 31.0021C56.2314 30.8147 56.2558 30.651 56.2791 30.4923C56.3669 29.9017 56.4313 29.4748 57.4963 28.6723C58.6446 27.8073 58.5591 27.3846 58.418 26.6813C58.3814 26.5012 58.3403 26.2975 58.3181 26.061C58.307 25.9464 58.2959 25.8399 58.2859 25.7427L58.2837 25.7253C58.1937 24.8859 58.1748 24.7109 58.9555 24.1642C59.2954 23.9268 59.4531 23.5132 59.4131 22.9707L59.4153 22.9697ZM58.0094 25.7498L58.0138 25.7867C58.0238 25.8778 58.0338 25.9771 58.0438 26.0835C58.0671 26.3343 58.1093 26.5442 58.1471 26.7305C58.2814 27.3999 58.3436 27.705 57.323 28.4747C56.1725 29.3407 56.1037 29.8095 56.0059 30.4626C55.9826 30.6151 55.9593 30.7728 55.9182 30.9499C55.715 31.8292 55.4396 32.2427 53.5117 32.8036C51.6871 33.3339 50.953 34.6554 50.712 35.0894L50.7076 35.0976C50.6853 35.1385 50.6687 35.1693 50.6565 35.1867C50.6431 35.2061 50.6243 35.2419 50.5965 35.2962C49.4638 37.5267 47.2038 37.9955 45.5069 37.9955C44.1565 37.9955 43.1204 37.6689 42.4263 37.0251C41.5278 36.1919 41.5223 35.0945 41.5223 35.0833V22.1968C41.8077 22.2951 42.4496 22.5991 42.3807 23.3269C42.3396 23.7599 42.2186 24.2267 42.1009 24.6812C41.9376 25.3087 41.7844 25.9024 41.831 26.407L41.8388 26.4899C41.9176 27.3487 42.0487 28.7869 43.8933 28.7869C44.4752 28.7869 44.9216 28.6979 45.317 28.6191C46.1177 28.4594 46.5597 28.3713 47.2838 29.2353C47.7324 29.7696 47.8135 30.4391 47.5081 31.0717C47.1416 31.8322 46.3098 32.3645 45.3892 32.429C44.4574 32.4935 43.8289 32.3635 43.4691 32.0308C43.1681 31.7524 43.0471 31.3204 43.0993 30.7114C43.1204 30.4647 43.2181 30.2968 43.398 30.1965C43.7889 29.9795 44.4697 30.1269 44.8639 30.2425C44.8672 30.3807 44.9561 30.5066 45.096 30.5619C45.1904 30.5998 45.2959 30.6008 45.3914 30.566C45.4869 30.5312 45.5624 30.4636 45.6035 30.3766C45.6446 30.2896 45.6457 30.1924 45.608 30.1043C45.5702 30.0163 45.4969 29.9467 45.4025 29.9088C45.2481 29.8474 45.0671 29.8863 44.9583 30.001C44.5185 29.871 43.7445 29.7062 43.2558 29.9774C42.9971 30.1207 42.8516 30.3603 42.8227 30.6909C42.7628 31.3788 42.9105 31.8762 43.2725 32.211C43.6945 32.601 44.3864 32.7555 45.4103 32.6839C46.4309 32.6122 47.3537 32.0206 47.7613 31.1751C48.11 30.4534 48.0156 29.6888 47.5025 29.0776C46.6708 28.0858 46.0777 28.2045 45.257 28.3672C44.8761 28.443 44.4452 28.529 43.8922 28.529C42.303 28.529 42.1886 27.2873 42.1142 26.4654L42.1064 26.3824C42.0631 25.9177 42.2119 25.3445 42.3696 24.7354C42.4896 24.2748 42.6128 23.7988 42.6562 23.3474C42.7505 22.3534 41.7533 21.9952 41.5223 21.9256V20.0359C41.7477 20.0769 42.4985 20.2468 42.9149 20.7597C43.4324 21.3953 43.5835 21.7321 43.4902 22.0474C43.4802 22.0801 43.468 22.118 43.4546 22.161C43.3169 22.5838 43.0315 23.4641 43.6323 24.6136C44.3197 25.9259 45.3514 26.6373 46.4664 26.5677C47.1061 26.5278 48.0822 26.1542 48.9429 25.8235C49.4993 25.6106 50.0757 25.3895 50.28 25.3844C50.9052 25.3701 52.0613 25.497 52.7943 26.5145C53.2318 27.1215 53.2174 27.6343 53.1296 27.9578C53.0375 28.2925 52.8398 28.5228 52.6943 28.5945C52.621 28.6303 52.5422 28.6764 52.4522 28.7286C52.1068 28.9313 51.6326 29.2097 50.9885 29.0807C50.3089 28.9446 50.0379 28.6795 49.9302 28.0336C50.0668 27.9691 50.1501 27.836 50.139 27.6937C50.1312 27.5985 50.0845 27.5125 50.0068 27.4501C49.9291 27.3876 49.828 27.3569 49.7258 27.3641C49.5137 27.3784 49.3527 27.5484 49.3671 27.7449C49.3794 27.8984 49.4949 28.0254 49.6537 28.0632C49.778 28.8269 50.1267 29.1718 50.9286 29.3325C51.0596 29.3591 51.1918 29.3724 51.3206 29.3724C51.8736 29.3724 52.2934 29.1268 52.601 28.9466C52.681 28.8995 52.7576 28.8555 52.8231 28.8228C53.0275 28.7214 53.284 28.4358 53.3973 28.0233C53.4995 27.6497 53.5172 27.0601 53.0241 26.3753C52.2179 25.2575 50.9541 25.1152 50.2711 25.1305C50.0157 25.1367 49.4949 25.3363 48.8341 25.5891C48.0345 25.8952 47.0394 26.277 46.4453 26.3139C45.448 26.3773 44.5152 25.7171 43.88 24.5041C43.3247 23.4436 43.5901 22.6288 43.7189 22.2347C43.7334 22.1907 43.7456 22.1508 43.7567 22.116C43.8755 21.7127 43.7123 21.3175 43.1348 20.6082C42.6273 19.9848 41.7288 19.8118 41.5201 19.78V18.7308C44.6296 19.2989 46.0233 21.1497 46.4797 21.9235C46.7196 22.3289 46.8462 22.985 46.9151 23.3443C46.9373 23.4569 46.9528 23.5378 46.9673 23.5838L46.9739 23.6053C47.0361 23.8142 47.2016 24.37 48.3177 24.4662C48.3876 24.4723 48.4576 24.4754 48.5276 24.4754C49.0684 24.4754 49.5615 24.2953 49.9169 23.9677C50.2844 23.6289 50.4566 23.1601 50.4044 22.6472C50.3255 21.8836 49.8125 21.4895 49.4926 21.3165C49.5048 21.1497 49.3893 20.9951 49.2128 20.95C49.0073 20.8968 48.7941 21.0074 48.7364 21.1967C48.7086 21.2878 48.7208 21.3841 48.7719 21.467C48.823 21.5499 48.9052 21.6093 49.004 21.6359C49.1373 21.6707 49.2805 21.6359 49.3782 21.5468C49.6925 21.7208 50.0634 22.0545 50.1267 22.6718C50.1723 23.113 50.0312 23.4989 49.7192 23.7875C49.3816 24.0997 48.8663 24.2584 48.3421 24.2123C47.417 24.1325 47.2926 23.7159 47.2393 23.5378L47.2316 23.5142C47.2205 23.4784 47.2027 23.3853 47.1849 23.2942C47.1139 22.9277 46.9817 22.2439 46.7207 21.8027C46.3498 21.1752 44.8817 19.085 41.5167 18.478V17.4062C41.8621 17.5925 42.6017 17.9232 43.3802 17.8526C44.5807 17.744 45.9878 17.4216 46.2177 15.8729L46.2199 15.8555L46.2177 15.8381C46.2165 15.8278 46.0866 14.8492 46.683 14.4439C46.7818 14.3763 46.8706 14.3128 46.955 14.2525C47.4392 13.9034 47.6825 13.7284 48.4743 13.9095C49.0084 14.0314 49.2905 14.4101 49.4105 14.624C49.5937 14.9506 49.6281 15.2792 49.567 15.4225C49.5337 15.5013 49.4782 15.6077 49.4116 15.7336C49.1695 16.1953 48.8374 16.8269 48.9573 17.3192L48.9762 17.396C49.1206 17.9989 49.3172 18.824 50.9752 18.8987C51.7959 18.9356 52.1657 18.6418 52.3301 18.3971C52.6099 17.9826 52.5011 17.438 52.38 17.2374C52.2257 16.9814 51.9947 16.5976 51.2817 16.5751C51.2129 16.4328 51.0485 16.3468 50.8797 16.3662C50.6687 16.3908 50.5177 16.5689 50.5443 16.7644C50.571 16.9589 50.7653 17.0981 50.9763 17.0736C51.124 17.0562 51.2473 16.962 51.2928 16.833C51.8314 16.8566 51.9936 17.1258 52.1357 17.3633C52.2257 17.5127 52.309 17.9437 52.0924 18.263C51.9047 18.5404 51.5327 18.6684 50.9863 18.6438C49.5404 18.5783 49.376 17.8925 49.245 17.3418L49.2261 17.264C49.1273 16.8586 49.4471 16.2485 49.6614 15.8411C49.7281 15.7142 49.7858 15.6047 49.8236 15.5156C49.9246 15.2781 49.8558 14.8625 49.6548 14.5063C49.4093 14.0692 49.014 13.7693 48.5387 13.6608C47.6169 13.4499 47.2849 13.6884 46.7829 14.0498L46.8129 14.0856L46.774 14.0559C46.6941 14.1132 46.6097 14.1747 46.5164 14.2381C45.8256 14.7069 45.9211 15.7132 45.9378 15.8534C45.7268 17.2107 44.4452 17.4984 43.3502 17.5966C42.5307 17.6703 41.7189 17.2261 41.5145 17.1043V16.0571C41.9099 16.1503 42.2408 16.1677 42.2575 16.1677C43.6145 16.1595 44.1698 15.2689 44.5385 14.6793L44.5729 14.624C44.9539 14.017 44.9394 13.3343 44.8928 12.6884C44.8606 12.2431 44.9305 12.0998 45.0194 11.9176C45.046 11.8633 45.076 11.8019 45.106 11.7282C45.2148 11.4569 45.8034 10.4333 46.7063 10.3729C47.6114 10.3125 48.3565 10.6585 48.6997 11.2993C48.8907 11.6565 48.8385 12.2175 48.5787 12.6034C48.4054 12.8603 48.1655 13.0026 47.9023 13.0026C47.5203 13.0026 47.2693 12.9115 47.1172 12.8276C47.1616 12.7242 47.1527 12.6095 47.0894 12.5133C47.0361 12.4314 46.9517 12.3741 46.8518 12.3516C46.7518 12.3291 46.6474 12.3434 46.5597 12.3925C46.4708 12.4417 46.4087 12.5195 46.3842 12.6116C46.3598 12.7037 46.3753 12.7999 46.4286 12.8808C46.5319 13.0384 46.7507 13.0968 46.9284 13.0169C47.1127 13.1306 47.427 13.2575 47.9034 13.2575C48.2655 13.2575 48.5898 13.0732 48.8152 12.7375C49.1273 12.2748 49.1839 11.6217 48.9496 11.1846C48.5542 10.4476 47.708 10.0474 46.6874 10.117C45.6368 10.1876 44.9683 11.3361 44.8472 11.6391C44.8217 11.7036 44.795 11.7579 44.7684 11.8121C44.6673 12.0179 44.5807 12.196 44.6174 12.7047C44.6618 13.3117 44.6751 13.9505 44.3342 14.4961L44.2997 14.5514C43.9433 15.1215 43.4557 15.9036 42.2652 15.9118C42.2019 15.9077 41.8743 15.8831 41.5167 15.792V14.7018C42.4229 14.7121 43.8367 14.2197 43.9022 13.1459C43.9844 11.7896 43.3958 11.288 42.9638 10.9195C42.8249 10.8008 42.705 10.6994 42.6306 10.5879C42.3219 10.1272 42.3885 9.83346 42.5084 9.30219C42.5262 9.22338 42.5662 9.17117 42.6328 9.13739C42.7594 9.07495 42.956 9.08826 43.1126 9.11385C43.1259 9.24692 43.2181 9.36156 43.3547 9.4107C43.4513 9.4455 43.5557 9.44345 43.6501 9.40558C43.7445 9.3677 43.8178 9.2981 43.8555 9.20904C43.9333 9.02581 43.8355 8.81904 43.6368 8.74739C43.4735 8.68802 43.2892 8.73817 43.1859 8.86613C42.896 8.81392 42.6661 8.82928 42.4996 8.91219C42.3585 8.9818 42.2697 9.09542 42.2341 9.24999C42.1087 9.80684 42.0254 10.1743 42.3918 10.722C42.4862 10.8632 42.6262 10.982 42.7739 11.1079C43.1848 11.458 43.6967 11.894 43.6223 13.1306C43.569 14.0027 42.4041 14.4449 41.5412 14.4449C41.5323 14.4449 41.5234 14.4449 41.5145 14.4449V3.53508C41.5145 3.49106 41.5256 3.09799 41.5867 2.70389C41.6011 2.60972 41.7477 1.78365 42.4474 1.80822C43.0759 1.82665 43.3003 1.74783 43.6412 1.62909L43.7134 1.60452C44.0077 1.50215 44.2453 1.16538 44.4541 0.867506C44.5396 0.745695 44.6207 0.630025 44.684 0.56656C44.7517 0.497977 45.2004 0.33829 45.7623 0.33829H45.7912C46.1621 0.342384 46.6719 0.418132 46.9984 0.760024C47.5325 1.32097 47.8091 1.45609 48.0767 1.58609C48.1733 1.63318 48.2644 1.67719 48.3677 1.74271C48.6064 1.89625 49.0562 1.91979 49.577 1.94743C49.9968 1.96995 50.4721 1.99452 50.8331 2.09688C51.1429 2.18491 51.2084 2.44799 51.3072 2.8472C51.4205 3.30476 51.5616 3.8739 52.1513 4.42461C53.183 5.38682 53.545 6.07777 53.7016 7.38289C53.8404 8.54369 54.4223 8.87329 55.0942 9.25306C55.1975 9.31141 55.3041 9.3718 55.4118 9.43731C56.0426 9.8181 55.9571 10.3709 55.9004 10.7404C55.8938 10.7865 55.8871 10.8294 55.8827 10.8683C55.8782 10.9052 55.8716 10.9461 55.8638 10.9912C55.7994 11.3689 55.6794 12.0711 56.6001 13.0732C57.5596 14.1184 57.2231 15.2638 57.1465 15.4829C57.0532 15.749 56.9499 17.3295 57.6618 17.871C58.2259 18.2999 58.1726 18.956 58.0282 19.43C58.0138 19.4781 57.9971 19.5303 57.9794 19.5845C57.8217 20.0677 57.584 20.7975 58.227 21.1333C58.5868 21.3206 59.0755 22.2132 59.1321 22.9881C59.1554 23.3044 59.1132 23.7292 58.7834 23.9605C57.8794 24.5942 57.9127 24.9094 58.0038 25.7509L58.0094 25.7498Z" fill="#FDB913"/>
<path d="M38.7684 0.117188H35.9565L31.4844 1.81436L31.4733 1.81846L28.4015 5.44721L27.9518 7.23447L26.9401 8.774V10.0494L24.8922 14.9936L24.89 14.9997L23.7062 23.8879V23.8971L25.7607 30.8485L25.764 30.8598L33.821 38.2862H38.6018L41.1272 35.9544L41.1416 35.9411V2.94137L38.7695 0.117188H38.7684ZM39.9811 12.8286V10.6605C40.1344 10.6073 40.2388 10.4712 40.2388 10.3176C40.2388 10.115 40.06 9.95015 39.839 9.95015C39.618 9.95015 39.4403 10.115 39.4403 10.3176C39.4403 10.4712 39.5447 10.6073 39.6968 10.6605V12.717L39.0294 13.3005L38.5885 12.891V9.64204L39.7801 8.53345V4.26083C39.9334 4.2076 40.0366 4.07146 40.0366 3.91792C40.0366 3.71524 39.8579 3.55043 39.638 3.55043C39.4181 3.55043 39.2382 3.71524 39.2382 3.91792C39.2382 4.07044 39.3415 4.20658 39.4947 4.26083V8.42597L38.3042 9.53353V12.9985L39.9278 14.5053H40.8562V15.5617H39.4658L36.8161 13.1121V9.05448C36.8716 9.03912 36.9227 9.01149 36.9649 8.97566C37.086 8.87329 37.1248 8.71054 37.0648 8.5703L37.7401 7.99707V5.93241L38.3453 5.35099V2.54728C38.4986 2.49303 38.6018 2.35688 38.6018 2.20539C38.6018 2.00271 38.423 1.83688 38.2031 1.83688C37.9833 1.83688 37.8034 2.00168 37.8034 2.20539C37.8034 2.35791 37.9077 2.49405 38.061 2.54728V5.24454L37.4558 5.82698V7.88242L36.8716 8.37683C36.865 8.37376 36.8572 8.37069 36.8505 8.36762V5.57414C37.0038 5.51989 37.107 5.38375 37.107 5.23225C37.107 5.02957 36.9283 4.86375 36.7084 4.86375C36.4885 4.86375 36.3097 5.02855 36.3097 5.23225C36.3097 5.38477 36.413 5.52092 36.5662 5.57414V8.35841C36.5662 8.35841 36.5584 8.36046 36.5551 8.36148L35.6567 7.52313V4.38878L36.9471 3.18704V1.60657C37.1004 1.55231 37.2037 1.41617 37.2037 1.26467C37.2037 1.06199 37.0249 0.896169 36.805 0.896169C36.5851 0.896169 36.4052 1.06097 36.4052 1.26467C36.4052 1.41719 36.5096 1.55334 36.6628 1.60657V3.07956L35.3724 4.2813V7.63061L36.3408 8.53447C36.263 8.67164 36.2852 8.83951 36.3996 8.95314C36.4352 8.98999 36.4807 9.01865 36.5307 9.03912V13.2206L39.347 15.8227H40.8551V16.9129H37.7856L36.8483 16.0571V14.8021L35.3602 13.4162L35.9521 12.8736V9.87338C36.1053 9.81913 36.2086 9.68298 36.2086 9.53149C36.2086 9.32881 36.0298 9.16298 35.8099 9.16298C35.5901 9.16298 35.4101 9.32778 35.4101 9.53149C35.4101 9.68298 35.5134 9.81913 35.6667 9.87338V12.7641L35.1592 13.2288L34.8815 12.9698V10.3883L34.2197 9.78432L34.8193 9.18755V7.96329L34.364 7.5477V3.40303C34.5173 3.3498 34.6206 3.21366 34.6206 3.06012C34.6206 2.85744 34.4418 2.69263 34.2219 2.69263C34.002 2.69263 33.8221 2.85744 33.8221 3.06012C33.8221 3.21264 33.9265 3.34878 34.0797 3.40303V7.65723L34.535 8.07282V9.08621L34.0175 9.60109L33.3623 9.00227V4.24343L32.6627 3.58626V2.96082C32.8159 2.90657 32.9192 2.77043 32.9192 2.61893C32.9192 2.41625 32.7404 2.25043 32.5205 2.25043C32.3006 2.25043 32.1207 2.41523 32.1207 2.61893C32.1207 2.77145 32.2251 2.90759 32.3784 2.96082V3.69374L33.0769 4.35091V9.1118L34.5972 10.4978V13.0784L36.5629 14.9096V15.7961L33.8809 13.3476V10.7711L32.5638 9.53353V5.828L31.6188 4.95485V3.76642C31.772 3.71217 31.8764 3.57602 31.8764 3.42453C31.8764 3.22185 31.6976 3.05602 31.4766 3.05602C31.2556 3.05602 31.0779 3.22082 31.0779 3.42453C31.0779 3.57705 31.1812 3.71319 31.3345 3.76642V5.06335L32.2795 5.93651V9.64102L33.5966 10.8786V13.4561L34.9848 14.7243H34.0808L32.4084 13.148V10.8346L31.5999 10.0883V7.12085L30.4449 6.06549C30.5116 5.9273 30.4794 5.76249 30.3616 5.65604C30.2861 5.58643 30.1828 5.55162 30.0784 5.54958C29.9718 5.54958 29.873 5.58848 29.7986 5.65808C29.7231 5.72769 29.682 5.81982 29.6831 5.91808C29.6831 6.01635 29.7253 6.10848 29.8008 6.17706C29.9174 6.28454 30.0951 6.31218 30.245 6.24974L31.3156 7.22935V10.1958L32.1252 10.942V12.8787L31.2045 12.0107V11.2614C31.3578 11.2082 31.4611 11.072 31.4611 10.9185C31.4611 10.7158 31.2823 10.551 31.0624 10.551C30.8425 10.551 30.6626 10.7158 30.6626 10.9185C30.6626 11.071 30.767 11.2072 30.9202 11.2614V12.1172L33.6833 14.7233H32.1141L30.2017 12.9535V9.70141L29.4632 9.03401C29.5287 8.89479 29.4965 8.73101 29.3777 8.62455C29.22 8.48227 28.9679 8.48534 28.8135 8.62967C28.7391 8.7003 28.698 8.79243 28.6992 8.89069C28.6992 8.98896 28.7425 9.08109 28.8191 9.14967C28.9379 9.25715 29.1156 9.28377 29.2633 9.2203L29.9163 9.81196V12.6914L29.0134 11.8551H28.2505V10.5439C28.4038 10.4896 28.507 10.3535 28.507 10.202C28.507 9.99929 28.3282 9.83346 28.1084 9.83346C27.8885 9.83346 27.7086 9.99826 27.7086 10.202C27.7086 10.3545 27.813 10.4906 27.9662 10.5439V12.1161H28.8946L31.9941 14.9864H35.2702L37.6657 17.1729H40.8518V18.3797H38.3897L37.6035 19.1024L34.0309 15.8514L34.0164 15.8381H31.6165L30.1118 14.4725H28.6336L27.7752 13.6567C27.844 13.5195 27.8163 13.3547 27.7008 13.2462C27.5486 13.1009 27.2954 13.0968 27.1366 13.238C26.9789 13.3793 26.9756 13.6127 27.1277 13.7591C27.2421 13.8686 27.4198 13.8993 27.5709 13.8399L28.5137 14.7366H29.9952L31.4999 16.1011H33.8998L35.8288 17.8577H32.5672L31.3034 16.6959H28.7569L28.1794 16.1431H27.3865C27.3288 16.0018 27.1811 15.9056 27.0145 15.9056C26.7946 15.9056 26.6158 16.0704 26.6158 16.2741C26.6158 16.4778 26.7946 16.6416 27.0145 16.6416C27.1811 16.6416 27.3288 16.5464 27.3865 16.4051H28.0584L28.497 16.8248L27.462 17.7635H26.6225C26.5636 17.6222 26.4159 17.527 26.2515 17.527C26.0316 17.527 25.8517 17.6918 25.8517 17.8955C25.8517 18.0992 26.0305 18.263 26.2515 18.263C26.417 18.263 26.5647 18.1668 26.6225 18.0266H27.5786L28.7558 16.9589H31.1857L32.4361 18.1064L32.4506 18.1197H34.0364L32.9425 19.1577H30.4838L29.6154 18.3807H28.9501C28.8913 18.2395 28.7436 18.1433 28.5781 18.1433C28.3582 18.1433 28.1794 18.3081 28.1794 18.5118C28.1794 18.7155 28.3582 18.8792 28.5781 18.8792C28.7447 18.8792 28.8924 18.7841 28.9501 18.6428H29.501L30.2217 19.2867L29.682 19.7555H27.3876C27.3299 19.6142 27.1822 19.519 27.0156 19.519C26.7957 19.519 26.6169 19.6838 26.6169 19.8865C26.6169 20.0892 26.7957 20.255 27.0156 20.255C27.1811 20.255 27.3299 20.1588 27.3876 20.0175H29.7942L30.4849 19.4187H33.0636L34.434 18.1187H36.1187L37.2592 19.1567H34.9815L34.7749 19.3665C34.6217 19.3112 34.4451 19.3481 34.3351 19.4607C34.263 19.5333 34.2263 19.6275 34.2319 19.7258C34.2374 19.8241 34.2841 19.9152 34.3629 19.9807C34.5262 20.1168 34.7782 20.1045 34.926 19.9551C35.037 19.8425 35.0592 19.6777 34.9859 19.5426L35.107 19.4177H37.2603L36.1453 20.4434H33.5789L31.7642 22.0566L30.5238 20.8723H27.7896C27.7319 20.731 27.5842 20.6358 27.4176 20.6358C27.1977 20.6358 27.0189 20.8006 27.0189 21.0033C27.0189 21.206 27.1977 21.3718 27.4176 21.3718C27.5831 21.3718 27.7308 21.2756 27.7885 21.1353H30.4016L31.4233 22.1108H27.5575L26.9923 21.6093H25.6785C25.6196 21.468 25.4719 21.3728 25.3076 21.3728C25.0877 21.3728 24.9078 21.5376 24.9078 21.7403C24.9078 21.943 25.0866 22.1078 25.3076 22.1078C25.473 22.1078 25.6207 22.0116 25.6785 21.8713H26.8768L27.2977 22.2449L26.6213 22.8734C26.4714 22.813 26.2926 22.8417 26.1771 22.9502C26.0217 23.0945 26.0228 23.3279 26.1793 23.4712C26.2549 23.5408 26.3515 23.5757 26.4625 23.5777C26.5691 23.5777 26.6691 23.5378 26.7446 23.4682C26.8612 23.3597 26.8912 23.1959 26.8235 23.0587L27.5597 22.3739H31.6976L31.7543 22.4292L33.691 20.7064H35.8588L34.2097 22.2224V23.4006L33.3112 24.2123L32.3317 23.3085H29.2766L28.4426 24.0588H27.0767L26.0172 25.02C25.8684 24.9565 25.6896 24.9842 25.5719 25.0906C25.4153 25.2329 25.4131 25.4663 25.5674 25.6116C25.7218 25.756 25.975 25.758 26.1327 25.6157C26.2504 25.5093 26.2826 25.3455 26.2171 25.2063L27.1944 24.3198H28.5592L29.3932 23.5695H32.2151L32.9681 24.2656H30.7448L29.7286 25.1561H27.9362L26.9745 26.059C26.8235 25.9986 26.6469 26.0293 26.5314 26.1378C26.457 26.2074 26.4159 26.2995 26.417 26.3968C26.417 26.4961 26.4603 26.5882 26.5358 26.6578C26.6935 26.8001 26.9467 26.798 27.1011 26.6527C27.2166 26.5442 27.2455 26.3804 27.1777 26.2422L28.055 25.4172H29.8419L30.858 24.5266H33.3679L34.4928 23.5101V22.3309L38.5052 18.6418H40.8496V19.7913H39.0838L37.2736 21.4885V23.9759L35.2947 25.8194H32.7904C32.7315 25.6782 32.5838 25.582 32.4195 25.582C32.2551 25.582 32.1063 25.6782 32.0485 25.8194H30.2761L27.8296 28.0643H26.6202L26.5603 28.1124C26.4148 28.0417 26.2349 28.0591 26.1116 28.1605C26.0316 28.225 25.9839 28.315 25.9772 28.4133C25.9706 28.5116 26.005 28.6058 26.075 28.6795C26.2204 28.832 26.4725 28.8473 26.638 28.7132C26.7579 28.617 26.8012 28.4635 26.7546 28.3263H27.7674V29.7031C27.6142 29.7573 27.5109 29.8935 27.5109 30.045C27.5109 30.2477 27.6897 30.4125 27.9096 30.4125C28.1295 30.4125 28.3094 30.2477 28.3094 30.045C28.3094 29.8925 28.205 29.7563 28.0517 29.7031V28.2301L30.3938 26.0815H31.9897L30.3616 27.6886L28.9757 28.9149V30.1678C28.8224 30.2221 28.718 30.3582 28.718 30.5097C28.718 30.7124 28.8968 30.8772 29.1178 30.8772C29.3388 30.8772 29.5165 30.7124 29.5165 30.5097C29.5165 30.3572 29.4132 30.221 29.26 30.1678V29.0265L30.3205 28.0888V30.392L29.2933 31.3583V32.4679C29.14 32.5221 29.0357 32.6583 29.0357 32.8098C29.0357 33.0125 29.2144 33.1783 29.4354 33.1783C29.6564 33.1783 29.8341 33.0135 29.8341 32.8098C29.8341 32.6573 29.7297 32.5211 29.5776 32.4679V31.4658L30.4649 30.6315L31.671 31.734V33.9655C31.5177 34.0197 31.4133 34.1559 31.4133 34.3074C31.4133 34.51 31.5921 34.6759 31.8131 34.6759C32.0341 34.6759 32.2118 34.5111 32.2118 34.3074C32.2118 34.1548 32.1085 34.0187 31.9553 33.9655V31.6255L30.606 30.392V27.835L32.204 26.2576C32.2285 26.2719 32.254 26.2842 32.2818 26.2944V30.348L33.6455 31.6285V34.984C33.4922 35.0382 33.389 35.1744 33.389 35.3259C33.389 35.5285 33.5678 35.6944 33.7876 35.6944C34.0075 35.6944 34.1863 35.5296 34.1863 35.3259C34.1863 35.1733 34.0831 35.0372 33.9298 34.984V31.521L32.5661 30.2415V26.2944C32.6005 26.2821 32.6327 26.2657 32.6616 26.2463L33.4434 27.0806V29.5506L33.6888 29.7584C33.6288 29.8986 33.6666 30.0614 33.7888 30.1637C33.9498 30.3009 34.203 30.2917 34.3529 30.1422C34.4251 30.0706 34.4629 29.9764 34.4584 29.8781C34.454 29.7799 34.4084 29.6888 34.3296 29.6222C34.2074 29.5188 34.0286 29.4973 33.882 29.5649L33.7288 29.4349V26.9833L32.8837 26.0815H35.0192L34.2863 26.7642V28.8606L34.8549 29.4103V30.7932C34.7016 30.8475 34.5983 30.9836 34.5983 31.1351C34.5983 31.3378 34.7771 31.5026 34.9981 31.5026C35.2191 31.5026 35.3968 31.3378 35.3968 31.1351C35.3968 30.9816 35.2935 30.8454 35.1403 30.7922V29.3049L34.5706 28.7552V26.8717L37.2803 24.3485V25.6065L36.0887 26.6967C35.9399 26.6343 35.7611 26.6619 35.6445 26.7694C35.569 26.839 35.5268 26.9311 35.5268 27.0294C35.5268 27.1276 35.5678 27.2208 35.6423 27.2904C35.7977 27.4347 36.0509 27.4357 36.2075 27.2924C36.3241 27.185 36.3563 27.0202 36.2897 26.883L37.5646 25.715V21.8826L38.4286 22.6677V26.017L36.0098 28.2618V32.6603L35.0836 33.4813V36.5573C34.9304 36.6115 34.8271 36.7477 34.8271 36.8992C34.8271 37.1019 35.0059 37.2677 35.2258 37.2677C35.4457 37.2677 35.6245 37.1029 35.6245 36.8992C35.6245 36.7467 35.5212 36.6105 35.3679 36.5573V33.5929L36.0109 33.0237V35.1355C35.8577 35.1897 35.7544 35.3259 35.7544 35.4774C35.7544 35.68 35.9332 35.8459 36.1531 35.8459C36.373 35.8459 36.5518 35.6811 36.5518 35.4774C36.5518 35.3248 36.4485 35.1887 36.2952 35.1355V28.6385L37.3047 29.5905V32.7996C37.1515 32.8538 37.0482 32.9899 37.0482 33.1414C37.0482 33.3441 37.227 33.51 37.448 33.51C37.669 33.51 37.8467 33.3451 37.8467 33.1414C37.8467 32.9889 37.7434 32.8528 37.5901 32.7996V29.484L36.3519 28.3171L38.7129 26.1265V22.5592L37.6035 21.5519L39.2104 20.0554H40.8573V22.0208H39.8456V27.2945L38.4086 28.6447V33.7945L37.2203 34.8939V35.9032C37.0671 35.9574 36.9627 36.0936 36.9627 36.2451C36.9627 36.4478 37.1415 36.6126 37.3625 36.6126C37.5835 36.6126 37.7612 36.4478 37.7612 36.2451C37.7612 36.0926 37.6579 35.9564 37.5046 35.9032V35.0024L38.6929 33.902V28.7521L39.1693 28.3048L39.7635 28.8453V34.2418L38.9827 34.9543C38.835 34.8918 38.6574 34.9195 38.5385 35.027C38.3831 35.1693 38.3819 35.4026 38.5363 35.548C38.6907 35.6913 38.9439 35.6923 39.1016 35.55C39.2182 35.4426 39.2493 35.2788 39.1838 35.1406L40.0478 34.3514V28.7358L39.3681 28.1185L40.1299 27.403V22.2838H40.8573V35.8326L38.4852 38.0231H33.9398L26.0205 30.7236L23.996 23.8776L25.171 15.0632L27.2244 10.1057L27.2277 8.8477L28.2205 7.32762L28.6603 5.57107L31.6521 2.03546L36.0154 0.38026H38.6307L40.8573 3.03248V14.2463H40.0466L39.2304 13.4888L39.9822 12.8306L39.9811 12.8286Z" fill="#3F7DB5"/>
<path d="M7.77869 39.8237C7.7376 39.0887 7.72982 38.3517 7.80978 37.6137C7.85753 37.238 7.90751 36.8664 8.09408 36.5184C8.14405 36.4303 8.22179 36.3362 8.31286 36.2788C8.55717 36.1151 8.80815 35.9605 9.06802 35.8162C9.85095 35.3883 10.736 35.0761 11.6456 34.986C12.363 34.9021 13.0926 34.9829 13.7856 35.1692L13.5668 35.247C14.1498 34.2418 14.6907 33.1875 15.0638 32.1014C15.2482 31.5579 15.3759 30.9969 15.5125 30.4288C15.6824 29.7716 15.8312 29.0551 16.3598 28.5341C16.5164 28.3877 16.6752 28.229 16.8096 28.0612C17.4493 27.2607 17.9745 26.3722 18.4487 25.4775C18.5176 25.3434 18.5776 25.2042 18.6497 25.0711C18.8274 24.7804 19.054 24.5552 19.2805 24.3444C19.6648 23.982 20.0901 23.679 20.4322 23.2921C20.8264 22.769 21.1451 22.1794 21.5249 21.64C21.887 21.1363 22.2157 20.601 22.7543 20.2263C22.8887 20.1352 23.1397 20.0584 23.3185 20.1567L23.3462 20.171L23.4029 20.1997C23.8959 20.4331 24.1924 20.9162 24.1636 21.427C24.108 22.3637 23.6538 23.1529 23.1919 23.94C22.8776 24.4478 22.4545 24.8838 22.1457 25.3874C21.9903 25.6341 21.8603 25.8931 21.7304 26.1582C21.3617 26.926 20.9053 27.7582 20.7309 28.5832C20.6709 28.8657 20.6432 29.1554 20.6454 29.4461C20.5976 28.8647 20.6943 28.2761 20.8864 27.7213C21.1907 26.8881 21.5294 26.0764 21.9436 25.2861C22.2312 24.7661 22.6432 24.3178 22.9364 23.807C23.0852 23.5582 23.213 23.2972 23.334 23.0341C23.6616 22.2705 24.248 21.0135 23.2085 20.5252L23.1608 20.5027L23.1374 20.4914L23.1263 20.4863H23.1252C23.0908 20.4812 23.043 20.5088 22.9864 20.5426C22.7643 20.691 22.5744 20.9265 22.4067 21.1373C22.048 21.6021 21.7348 22.1016 21.4261 22.5991C21.2229 22.9144 21.0463 23.2511 20.8053 23.5552C20.4566 23.9605 20.0035 24.2891 19.6204 24.6535C19.3483 24.9094 19.1162 25.1479 18.9862 25.4611C18.4898 26.4684 17.9079 27.4388 17.1916 28.3304C17.0928 28.4501 16.9884 28.5668 16.8707 28.6805C16.7729 28.7746 16.6574 28.8739 16.5753 28.9814C16.2332 29.4175 16.1099 29.9948 15.9689 30.524C15.8257 31.086 15.6857 31.6613 15.4858 32.2232C15.0672 33.3922 14.4763 34.4773 13.82 35.5347C12.2608 35.028 10.6172 35.2675 9.18463 36.0014C9.01249 36.0895 8.84147 36.1796 8.67489 36.2778C8.52163 36.373 8.35061 36.4406 8.25622 36.6003C8.16515 36.7477 8.10518 36.9207 8.05632 37.0947C7.82977 37.9852 7.79756 38.9106 7.78091 39.8237H7.77869Z" fill="#FDB913"/>
<path d="M17.6359 29.2977C18.3511 29.4502 19.0873 29.6263 19.8147 29.5352C19.8869 29.529 19.9658 29.5034 20.0346 29.486C21.0008 29.1718 22.0358 29.094 23.0198 28.8995C23.8293 28.7091 24.8355 29.1759 25.1687 29.8781C25.2986 30.2138 25.4274 30.5946 25.5829 30.9171C25.6395 31.0286 25.6884 31.132 25.7706 31.2149C26.197 31.5497 25.584 32.4116 25.2975 32.692C25.4674 32.4157 25.5962 32.1209 25.6628 31.8127C25.6851 31.6879 25.7106 31.5343 25.6406 31.4371C25.6184 31.4227 25.5751 31.391 25.554 31.3746C25.2853 31.1116 25.1431 30.7789 24.9843 30.4636C24.9388 30.3653 24.8211 30.1186 24.7777 30.0245C24.5745 29.6744 24.1225 29.4256 23.7072 29.3335C23.5084 29.2956 23.3263 29.2977 23.1241 29.3417C22.6566 29.4328 22.1968 29.4881 21.7393 29.5475C21.1974 29.6181 20.6654 29.6785 20.1446 29.8023C20.0557 29.8208 19.9458 29.8433 19.8547 29.8453L19.7592 29.8515L19.6659 29.8484C18.9485 29.8187 18.2667 29.5864 17.637 29.2977H17.6359Z" fill="#FDB913"/>
<path d="M19.714 30.8475C21.1066 31.0358 24.4849 31.8895 25.3511 32.8917C25.4188 32.9746 25.461 33.1046 25.4555 33.211C25.4721 33.8805 25.1767 34.5346 24.7592 35.0658C24.8769 34.7618 24.9702 34.4547 25.0301 34.1466C25.0957 33.8293 25.1201 33.5069 25.0635 33.1895C25.0601 33.165 25.0579 33.1731 25.0557 33.165C25.0135 33.0974 24.9435 33.0411 24.8647 32.9858C24.4638 32.7207 23.994 32.5354 23.5387 32.3461C22.2727 31.8353 20.9733 31.391 19.714 30.8485V30.8475Z" fill="#FDB913"/>
<path d="M18.2736 32.7125C19.4219 32.212 20.7834 32.3143 21.7629 33.0954C22.5003 33.6451 23.5686 34.3258 24.3093 34.8744C24.5703 35.0802 24.8757 35.29 25.0623 35.5807C25.0878 35.6247 25.1067 35.6626 25.1189 35.7159C25.1489 35.8111 25.1045 35.9298 25.0767 36.025C24.8368 36.7507 24.276 38.3681 23.3587 38.5124C23.1566 38.5523 22.6879 38.6158 22.7135 38.3169C22.749 38.5871 23.1399 38.451 23.3198 38.3926C23.9284 38.2033 24.2127 37.2646 24.4082 36.7456C24.507 36.4518 24.6225 36.0434 24.678 35.7947C24.6803 35.8264 24.6725 35.7896 24.6481 35.7609C24.4748 35.5572 24.2416 35.3944 24.0073 35.2225C23.4154 34.7966 22.8034 34.3954 22.216 33.9573C21.8506 33.6942 21.5063 33.3922 21.1487 33.121C20.3392 32.5754 19.2353 32.4914 18.2747 32.7125H18.2736Z" fill="#FDB913"/>
<path d="M23.0372 37.0067C23.0672 37.5441 23.0971 38.5155 22.4752 38.7867C22.2065 38.9301 21.9999 39.1757 21.7956 39.3917C21.5846 39.6261 21.3791 39.8677 21.1804 40.1144C20.8949 40.4716 20.5784 40.8739 20.2964 41.2373C20.1953 41.3571 20.0854 41.5229 19.9588 41.6283C19.7222 41.8382 19.067 42.262 18.7372 42.1053C18.6483 42.0675 18.5861 41.9549 18.5895 41.875C18.4717 41.3499 18.2796 40.8033 18.0686 40.2956C17.9309 39.9895 17.7932 39.6875 17.5733 39.4675C17.3401 39.2986 17.1202 39.1235 16.9103 38.9372C15.9397 38.0702 15.0213 37.152 14.2217 36.1478C14.0329 35.8919 13.8197 35.635 13.7286 35.334C13.8675 35.6155 14.1107 35.8387 14.3272 36.07C14.5527 36.2973 14.7837 36.5215 15.0202 36.7385C15.49 37.1776 15.9741 37.6045 16.4606 38.0262C16.9048 38.3947 17.3357 38.7929 17.821 39.1102C18.1697 39.3753 18.3363 39.7684 18.5106 40.1318C18.7494 40.6835 18.9515 41.2404 19.0648 41.8249C19.067 41.8351 19.0681 41.8638 19.0681 41.8771C19.0681 41.8781 19.0681 41.8709 19.0681 41.8679C19.0681 41.786 18.9759 41.7031 18.9049 41.7031C19.0059 41.6887 19.1725 41.616 19.2758 41.5608C19.4757 41.4512 19.6445 41.3438 19.7866 41.1738C19.8844 41.0602 20.1476 40.7449 20.2475 40.6262C20.7717 40.013 21.2981 39.3927 21.9311 38.8676C22.0843 38.7468 22.2354 38.6291 22.4364 38.5667C22.4519 38.5626 22.4652 38.5544 22.4797 38.5472C22.9106 38.2647 22.985 37.4673 23.0383 37.0087L23.0372 37.0067Z" fill="#FDB913"/>
<path d="M18.8296 41.875C19.4049 42.5701 19.8569 43.3542 20.0757 44.2151C20.2 44.647 20.1678 45.1107 20.1067 45.5519C19.9935 46.5111 20.1167 47.7179 19.2105 48.4078C18.9229 48.6095 18.6031 48.7723 18.291 48.935C17.4725 49.3619 16.6252 49.7232 15.7745 50.0825C16.4164 49.63 17.4092 49.0537 18.0911 48.6341C18.3688 48.457 18.6586 48.2891 18.9185 48.0926C19.3194 47.7619 19.4482 47.2685 19.5082 46.7844C19.5615 46.3718 19.5848 45.9388 19.647 45.5038C19.7181 45.0944 19.7791 44.6941 19.7014 44.2775C19.5648 43.4463 19.2161 42.6417 18.8296 41.874V41.875Z" fill="#FDB913"/>
<path d="M16.2441 49.8276C16.3463 50.3496 16.4662 50.9228 16.3052 51.448C16.1075 51.8369 15.7999 52.1573 15.5211 52.4951C15.0736 53.0049 14.6116 53.5147 14.0708 53.9497C13.8564 54.1145 13.7254 54.3274 13.6055 54.5844C13.4 55.0163 13.2579 55.52 13.0069 55.9847C12.7637 56.389 12.4172 56.7278 12.0785 57.0605C11.3688 57.7484 10.6081 58.3789 9.81409 58.9747C10.4649 58.2448 11.149 57.5467 11.792 56.8271C12.0751 56.4985 12.3805 56.171 12.5915 55.7994C12.8059 55.3613 12.9303 54.8874 13.1557 54.4032C13.2756 54.1524 13.4389 53.8719 13.6876 53.6703C13.8553 53.5413 14.0186 53.4103 14.1774 53.2669C14.5372 52.9466 14.8848 52.6057 15.2313 52.2658C15.5134 51.969 15.8354 51.6844 16.0653 51.3538C16.2641 50.8809 16.2286 50.3343 16.2441 49.8265V49.8276Z" fill="#FDB913"/>
<path d="M21.7184 21.7383C22.1071 22.0187 22.4314 22.0484 22.8189 21.8058C23.1976 21.5745 23.5163 21.2571 23.9172 21.0115C23.8084 21.4885 23.5297 21.9031 23.0855 22.1846C22.5679 22.5172 21.8183 22.3627 21.7195 21.7383H21.7184Z" fill="#FDB913"/>
<path d="M24.3743 30.9898C24.3377 31.5303 23.6847 31.8415 23.1572 31.8722C22.884 31.8752 22.8751 31.8722 23.1272 31.7647C23.5836 31.5559 24.0556 31.3747 24.3743 30.9888V30.9898Z" fill="#FDB913"/>
<path d="M17.6066 30.8812C17.721 30.5189 18.254 30.0142 18.6905 30.1903C18.5727 30.2241 18.495 30.2824 18.4106 30.3418C18.1474 30.5301 17.912 30.74 17.6066 30.8812Z" fill="#FDB913"/>
<path d="M6.79696 58.5346C6.65814 58.1937 6.02957 56.6982 5.51095 57.0145C5.43432 57.0657 5.37436 57.1517 5.3155 57.2397C5.09006 57.6092 4.92459 58.0197 4.74912 58.4148C3.90067 60.3126 2.93228 62.668 0.880005 63.7039C2.53693 62.8277 3.38649 61.1346 4.09835 59.5736C4.36599 58.9727 4.60031 58.3606 4.86018 57.7566C5.00899 57.4516 5.11005 57.1128 5.39434 56.8753C6.12619 56.4003 6.81806 57.9951 7.02684 58.4578L6.79696 58.5346Z" fill="#FDB913"/>
<path d="M6.90358 43.4739C7.40998 43.5927 7.77757 44.0247 7.95637 44.4617C8.18958 45.0217 8.21401 45.6399 8.1385 46.2254C8.12739 46.4332 8.05632 46.7178 8.013 46.9225C7.99524 47.0259 7.95415 47.1641 7.92083 47.2644C7.79201 47.7097 7.60655 48.1642 7.40554 48.5839C7.67429 47.4692 8.023 46.3299 7.91195 45.1824C7.85642 44.5252 7.58434 43.7882 6.90247 43.4739H6.90358Z" fill="#FDB913"/>
<path d="M6.56967 50.277C6.49527 51.6507 5.54576 52.9681 4.41745 53.8228C4.24976 53.9457 4.07318 54.0593 3.89661 54.1698C4.03876 54.0214 4.19312 53.8863 4.33638 53.742C5.33587 52.7501 6.17654 51.5944 6.57078 50.277H6.56967Z" fill="#FDB913"/>
<path d="M19.3094 26.4551C18.9829 26.4735 18.803 26.0774 18.9285 25.8307C19.145 26.0057 19.1995 26.2207 19.3094 26.4551Z" fill="#FDB913"/>
<path d="M12.2797 40.2516C13.4069 42.0593 8.12405 39.8575 7.52658 39.7899C6.72921 39.5985 5.36658 40.6231 4.72913 41.0612C4.36043 41.3212 3.98951 41.5997 3.62748 41.873C2.66908 42.5435 3.24545 43.3839 3.69411 44.1843C3.97508 44.69 4.36154 45.385 3.66302 45.7658C3.15217 46.0453 2.56913 46.1374 2.00387 46.2469C1.63073 46.3125 1.25537 46.3647 0.880005 46.4107C1.24537 46.3176 1.60963 46.2234 1.97166 46.1251C2.49584 45.9716 3.05222 45.8354 3.5031 45.5519C3.82404 45.3482 3.75963 45.0943 3.61304 44.7995C3.53975 44.6491 3.45201 44.5017 3.35762 44.3522C2.608 43.2129 2.17045 42.3029 3.54197 41.3673C4.12833 40.9159 4.72358 40.4747 5.36436 40.0857C5.94406 39.7469 6.58262 39.3682 7.30336 39.3589C7.80533 39.3958 8.27175 39.6241 8.7193 39.7807C9.42116 40.0458 10.1097 40.3293 10.8149 40.5648C11.3169 40.7183 12.795 41.2701 12.2808 40.2526L12.2797 40.2516Z" fill="#FDB913"/>
<path d="M99.82 20.32C99.2067 20.32 98.62 20.2333 98.06 20.06C97.5 19.8867 96.9867 19.6267 96.52 19.28C96.0533 18.9333 95.6467 18.5133 95.3 18.02C94.9533 17.5133 94.68 16.9267 94.48 16.26L97.02 15.26C97.2067 15.98 97.5333 16.58 98 17.06C98.4667 17.5267 99.08 17.76 99.84 17.76C100.12 17.76 100.387 17.7267 100.64 17.66C100.907 17.58 101.14 17.4733 101.34 17.34C101.553 17.1933 101.72 17.0133 101.84 16.8C101.96 16.5867 102.02 16.34 102.02 16.06C102.02 15.7933 101.973 15.5533 101.88 15.34C101.787 15.1267 101.627 14.9267 101.4 14.74C101.187 14.5533 100.9 14.3733 100.54 14.2C100.193 14.0267 99.76 13.8467 99.24 13.66L98.36 13.34C97.9733 13.2067 97.58 13.0267 97.18 12.8C96.7933 12.5733 96.44 12.3 96.12 11.98C95.8 11.66 95.5333 11.2867 95.32 10.86C95.12 10.42 95.02 9.92667 95.02 9.38C95.02 8.82 95.1267 8.3 95.34 7.82C95.5667 7.32667 95.88 6.9 96.28 6.54C96.6933 6.16667 97.18 5.88 97.74 5.68C98.3133 5.46667 98.9467 5.36 99.64 5.36C100.36 5.36 100.98 5.46 101.5 5.66C102.033 5.84667 102.48 6.09333 102.84 6.4C103.213 6.69333 103.513 7.02 103.74 7.38C103.967 7.74 104.133 8.08 104.24 8.4L101.86 9.4C101.727 9 101.48 8.64 101.12 8.32C100.773 8 100.293 7.84 99.68 7.84C99.0933 7.84 98.6067 7.98 98.22 8.26C97.8333 8.52667 97.64 8.88 97.64 9.32C97.64 9.74667 97.8267 10.1133 98.2 10.42C98.5733 10.7133 99.1667 11 99.98 11.28L100.88 11.58C101.453 11.78 101.973 12.0133 102.44 12.28C102.92 12.5333 103.327 12.84 103.66 13.2C104.007 13.56 104.267 13.9733 104.44 14.44C104.627 14.8933 104.72 15.42 104.72 16.02C104.72 16.7667 104.567 17.4133 104.26 17.96C103.967 18.4933 103.587 18.9333 103.12 19.28C102.653 19.6267 102.127 19.8867 101.54 20.06C100.953 20.2333 100.38 20.32 99.82 20.32ZM107.004 5.68H109.664L114.044 13.26H114.204L118.584 5.68H121.264V20H118.584V12.94L118.744 10.54H118.584L114.944 16.96H113.324L109.664 10.54H109.504L109.664 12.94V20H107.004V5.68ZM128.392 5.68H131.472L136.852 20H133.872L132.692 16.58H127.172L125.992 20H123.012L128.392 5.68ZM131.812 14.1L130.532 10.52L130.012 8.78H129.852L129.332 10.52L128.052 14.1H131.812ZM138.589 5.68H143.809C144.529 5.68 145.182 5.79333 145.769 6.02C146.355 6.24667 146.855 6.56 147.269 6.96C147.695 7.36 148.022 7.84 148.249 8.4C148.475 8.94667 148.589 9.54667 148.589 10.2C148.589 10.68 148.509 11.1333 148.349 11.56C148.189 11.9733 147.969 12.3533 147.689 12.7C147.409 13.0333 147.082 13.3333 146.709 13.6C146.335 13.8533 145.942 14.0533 145.529 14.2L145.509 14.34L149.349 19.84V20H146.249L142.549 14.62H141.289V20H138.589V5.68ZM143.789 12.14C144.402 12.14 144.902 11.9533 145.289 11.58C145.689 11.2067 145.889 10.7333 145.889 10.16C145.889 9.90667 145.842 9.66 145.749 9.42C145.669 9.18 145.542 8.96667 145.369 8.78C145.195 8.59333 144.975 8.44667 144.709 8.34C144.455 8.22 144.162 8.16 143.829 8.16H141.289V12.14H143.789ZM154.091 20V8.24H150.091V5.68H160.791V8.24H156.791V20H154.091ZM95.44 25.68H98.14V37.44H104.2V40H95.44V25.68ZM108.884 28.24V31.56H114.624V34.12H108.884V37.44H115.264V40H106.184V25.68H115.264V28.24H108.884ZM121.986 25.68H125.066L130.446 40H127.466L126.286 36.58H120.766L119.586 40H116.606L121.986 25.68ZM125.406 34.1L124.126 30.52L123.606 28.78H123.446L122.926 30.52L121.646 34.1H125.406ZM132.183 25.68H137.023C138.156 25.68 139.176 25.8533 140.083 26.2C140.989 26.5467 141.763 27.04 142.403 27.68C143.043 28.3067 143.529 29.06 143.863 29.94C144.209 30.82 144.383 31.7867 144.383 32.84C144.383 33.9067 144.209 34.88 143.863 35.76C143.529 36.64 143.043 37.3933 142.403 38.02C141.763 38.6467 140.989 39.1333 140.083 39.48C139.176 39.8267 138.156 40 137.023 40H132.183V25.68ZM136.903 37.44C137.689 37.44 138.383 37.3333 138.983 37.12C139.583 36.8933 140.083 36.58 140.483 36.18C140.883 35.78 141.183 35.3 141.383 34.74C141.583 34.1667 141.683 33.5333 141.683 32.84C141.683 32.1467 141.583 31.52 141.383 30.96C141.183 30.3867 140.883 29.9 140.483 29.5C140.083 29.1 139.583 28.7933 138.983 28.58C138.383 28.3533 137.689 28.24 136.903 28.24H134.883V37.44H136.903ZM149.318 28.24V31.56H155.058V34.12H149.318V37.44H155.698V40H146.618V25.68H155.698V28.24H149.318ZM158.24 25.68H163.46C164.18 25.68 164.833 25.7933 165.42 26.02C166.007 26.2467 166.507 26.56 166.92 26.96C167.347 27.36 167.673 27.84 167.9 28.4C168.127 28.9467 168.24 29.5467 168.24 30.2C168.24 30.68 168.16 31.1333 168 31.56C167.84 31.9733 167.62 32.3533 167.34 32.7C167.06 33.0333 166.733 33.3333 166.36 33.6C165.987 33.8533 165.593 34.0533 165.18 34.2L165.16 34.34L169 39.84V40H165.9L162.2 34.62H160.94V40H158.24V25.68ZM163.44 32.14C164.053 32.14 164.553 31.9533 164.94 31.58C165.34 31.2067 165.54 30.7333 165.54 30.16C165.54 29.9067 165.493 29.66 165.4 29.42C165.32 29.18 165.193 28.9667 165.02 28.78C164.847 28.5933 164.627 28.4467 164.36 28.34C164.107 28.22 163.813 28.16 163.48 28.16H160.94V32.14H163.44ZM175.082 40.32C174.469 40.32 173.882 40.2333 173.322 40.06C172.762 39.8867 172.249 39.6267 171.782 39.28C171.316 38.9333 170.909 38.5133 170.562 38.02C170.216 37.5133 169.942 36.9267 169.742 36.26L172.282 35.26C172.469 35.98 172.796 36.58 173.262 37.06C173.729 37.5267 174.342 37.76 175.102 37.76C175.382 37.76 175.649 37.7267 175.902 37.66C176.169 37.58 176.402 37.4733 176.602 37.34C176.816 37.1933 176.982 37.0133 177.102 36.8C177.222 36.5867 177.282 36.34 177.282 36.06C177.282 35.7933 177.236 35.5533 177.142 35.34C177.049 35.1267 176.889 34.9267 176.662 34.74C176.449 34.5533 176.162 34.3733 175.802 34.2C175.456 34.0267 175.022 33.8467 174.502 33.66L173.622 33.34C173.236 33.2067 172.842 33.0267 172.442 32.8C172.056 32.5733 171.702 32.3 171.382 31.98C171.062 31.66 170.796 31.2867 170.582 30.86C170.382 30.42 170.282 29.9267 170.282 29.38C170.282 28.82 170.389 28.3 170.602 27.82C170.829 27.3267 171.142 26.9 171.542 26.54C171.956 26.1667 172.442 25.88 173.002 25.68C173.576 25.4667 174.209 25.36 174.902 25.36C175.622 25.36 176.242 25.46 176.762 25.66C177.296 25.8467 177.742 26.0933 178.102 26.4C178.476 26.6933 178.776 27.02 179.002 27.38C179.229 27.74 179.396 28.08 179.502 28.4L177.122 29.4C176.989 29 176.742 28.64 176.382 28.32C176.036 28 175.556 27.84 174.942 27.84C174.356 27.84 173.869 27.98 173.482 28.26C173.096 28.5267 172.902 28.88 172.902 29.32C172.902 29.7467 173.089 30.1133 173.462 30.42C173.836 30.7133 174.429 31 175.242 31.28L176.142 31.58C176.716 31.78 177.236 32.0133 177.702 32.28C178.182 32.5333 178.589 32.84 178.922 33.2C179.269 33.56 179.529 33.9733 179.702 34.44C179.889 34.8933 179.982 35.42 179.982 36.02C179.982 36.7667 179.829 37.4133 179.522 37.96C179.229 38.4933 178.849 38.9333 178.382 39.28C177.916 39.6267 177.389 39.8867 176.802 40.06C176.216 40.2333 175.642 40.32 175.082 40.32ZM182.266 25.68H184.966V31.4H190.986V25.68H193.686V40H190.986V33.96H184.966V40H182.266V25.68ZM196.623 25.68H199.323V40H196.623V25.68ZM202.269 40V25.68H207.309C207.989 25.68 208.622 25.7933 209.209 26.02C209.809 26.2333 210.329 26.54 210.769 26.94C211.209 27.34 211.556 27.82 211.809 28.38C212.062 28.9267 212.189 29.5333 212.189 30.2C212.189 30.88 212.062 31.5 211.809 32.06C211.556 32.6067 211.209 33.08 210.769 33.48C210.329 33.88 209.809 34.1933 209.209 34.42C208.622 34.6333 207.989 34.74 207.309 34.74H204.969V40H202.269ZM207.349 32.18C208.056 32.18 208.589 31.98 208.949 31.58C209.309 31.18 209.489 30.72 209.489 30.2C209.489 29.9467 209.442 29.7 209.349 29.46C209.269 29.22 209.136 29.0133 208.949 28.84C208.776 28.6533 208.556 28.5067 208.289 28.4C208.022 28.2933 207.709 28.24 207.349 28.24H204.969V32.18H207.349ZM99.62 45.68H102.7L108.08 60H105.1L103.92 56.58H98.4L97.22 60H94.24L99.62 45.68ZM103.04 54.1L101.76 50.52L101.24 48.78H101.08L100.56 50.52L99.28 54.1H103.04ZM121.946 57.7C121.239 58.5533 120.406 59.2067 119.446 59.66C118.486 60.1 117.412 60.32 116.226 60.32C115.159 60.32 114.166 60.1267 113.246 59.74C112.339 59.3533 111.552 58.8267 110.886 58.16C110.219 57.4933 109.692 56.7067 109.306 55.8C108.919 54.88 108.726 53.8933 108.726 52.84C108.726 51.7867 108.919 50.8067 109.306 49.9C109.692 48.98 110.219 48.1867 110.886 47.52C111.552 46.8533 112.339 46.3267 113.246 45.94C114.166 45.5533 115.159 45.36 116.226 45.36C117.372 45.36 118.379 45.56 119.246 45.96C120.126 46.36 120.906 46.94 121.586 47.7L119.686 49.54C119.259 49.0467 118.766 48.6533 118.206 48.36C117.659 48.0667 117.006 47.92 116.246 47.92C115.579 47.92 114.952 48.04 114.366 48.28C113.779 48.5067 113.266 48.8333 112.826 49.26C112.399 49.6867 112.059 50.2067 111.806 50.82C111.552 51.42 111.426 52.0933 111.426 52.84C111.426 53.5867 111.552 54.2667 111.806 54.88C112.059 55.48 112.399 55.9933 112.826 56.42C113.266 56.8467 113.779 57.18 114.366 57.42C114.952 57.6467 115.579 57.76 116.246 57.76C117.046 57.76 117.752 57.6 118.366 57.28C118.992 56.9467 119.546 56.48 120.026 55.88L121.946 57.7ZM128.353 45.68H131.433L136.813 60H133.833L132.653 56.58H127.133L125.953 60H122.973L128.353 45.68ZM131.773 54.1L130.493 50.52L129.973 48.78H129.813L129.293 50.52L128.013 54.1H131.773ZM138.55 45.68H143.39C144.523 45.68 145.543 45.8533 146.45 46.2C147.356 46.5467 148.13 47.04 148.77 47.68C149.41 48.3067 149.896 49.06 150.23 49.94C150.576 50.82 150.75 51.7867 150.75 52.84C150.75 53.9067 150.576 54.88 150.23 55.76C149.896 56.64 149.41 57.3933 148.77 58.02C148.13 58.6467 147.356 59.1333 146.45 59.48C145.543 59.8267 144.523 60 143.39 60H138.55V45.68ZM143.27 57.44C144.056 57.44 144.75 57.3333 145.35 57.12C145.95 56.8933 146.45 56.58 146.85 56.18C147.25 55.78 147.55 55.3 147.75 54.74C147.95 54.1667 148.05 53.5333 148.05 52.84C148.05 52.1467 147.95 51.52 147.75 50.96C147.55 50.3867 147.25 49.9 146.85 49.5C146.45 49.1 145.95 48.7933 145.35 48.58C144.75 48.3533 144.056 48.24 143.27 48.24H141.25V57.44H143.27ZM155.685 48.24V51.56H161.425V54.12H155.685V57.44H162.065V60H152.985V45.68H162.065V48.24H155.685ZM164.607 45.68H167.267L171.647 53.26H171.807L176.187 45.68H178.867V60H176.187V52.94L176.347 50.54H176.187L172.547 56.96H170.927L167.267 50.54H167.107L167.267 52.94V60H164.607V45.68ZM185.436 53.34L180.616 45.68H183.836L186.696 50.42H186.856L189.616 45.68H192.876L188.136 53.34V60H185.436V53.34Z" fill="black"/>
</svg>
