<svg width="43" height="41" viewBox="0 0 43 41" fill="none" xmlns="http://www.w3.org/2000/svg">
<path d="M6.5758 32C4.58952 32 2.99447 31.2995 1.79066 29.8985C0.596888 28.4877 0 26.4105 0 23.6669C0 20.894 0.60692 18.7974 1.82076 17.3769C3.04463 15.9564 4.65472 15.2462 6.65104 15.2462C7.4937 15.2462 8.23104 15.3581 8.86304 15.5819C9.49504 15.7959 10.0367 16.0878 10.4882 16.4575C10.9496 16.8272 11.3409 17.2407 11.6619 17.698H11.8274C11.7773 17.3964 11.7171 16.9634 11.6468 16.3991C11.5867 15.8251 11.5566 15.2948 11.5566 14.8084V9H15.1078V31.7081H12.339L11.707 29.5044H11.5566C11.2556 29.9714 10.8744 30.3947 10.4129 30.7741C9.96151 31.1438 9.4198 31.4406 8.7878 31.6643C8.16583 31.8881 7.4285 32 6.5758 32ZM7.56894 29.2126C9.08373 29.2126 10.1521 28.7893 10.7741 27.9429C11.396 27.0964 11.7171 25.8268 11.7371 24.1339V23.6815C11.7371 21.8718 11.4362 20.4854 10.8343 19.5222C10.2324 18.5493 9.13389 18.0628 7.53885 18.0628C6.26482 18.0628 5.29174 18.5639 4.61961 19.566C3.95752 20.5584 3.62647 21.9448 3.62647 23.7253C3.62647 25.5057 3.95752 26.8678 4.61961 27.8115C5.29174 28.7456 6.27485 29.2126 7.56894 29.2126Z" fill="white"/>
<path d="M21.2496 9V14.4727C21.2496 15.1051 21.2296 15.7278 21.1894 16.3407C21.1593 16.944 21.1292 17.4158 21.0991 17.7563H21.2496C21.701 17.0558 22.328 16.4672 23.1306 15.9905C23.9431 15.504 24.9814 15.2608 26.2454 15.2608C28.2217 15.2608 29.8117 15.9662 31.0155 17.3769C32.2193 18.7779 32.8212 20.8551 32.8212 23.6085C32.8212 25.4376 32.5453 26.9748 31.9936 28.2202C31.4419 29.4655 30.6644 30.4093 29.6612 31.0514C28.6681 31.6838 27.4994 32 26.1551 32C24.8911 32 23.8679 31.7762 23.0854 31.3287C22.313 30.8714 21.7061 30.3412 21.2647 29.7379H21.0089L20.3618 31.7081H17.7134V9H21.2496ZM25.3125 18.0482C24.3093 18.0482 23.5118 18.2428 22.9199 18.632C22.3381 19.0212 21.9167 19.6049 21.6559 20.3832C21.3951 21.1519 21.2597 22.1297 21.2496 23.3166V23.6231C21.2496 25.423 21.5405 26.7997 22.1224 27.7532C22.7143 28.7066 23.7876 29.1834 25.3426 29.1834C26.5765 29.1834 27.5245 28.7018 28.1866 27.7386C28.8487 26.7657 29.1797 25.3744 29.1797 23.5647C29.1797 21.7356 28.8487 20.3589 28.1866 19.4346C27.5345 18.5104 26.5765 18.0482 25.3125 18.0482Z" fill="white"/>
<path d="M38 31.7081H34.4488V9H38V31.7081Z" fill="white"/>
<path d="M40.7358 10C40.9762 10 41.1765 10.0173 41.3368 10.052C41.4984 10.0866 41.62 10.1436 41.7016 10.223C41.7831 10.3023 41.8238 10.4095 41.8238 10.5445C41.8238 10.6457 41.7955 10.7328 41.7389 10.8057C41.6836 10.8778 41.6069 10.9371 41.5088 10.9836C41.4107 11.0301 41.2974 11.0657 41.1689 11.0903L42 12H41.7472L40.9658 11.13H40.2135V12H40V10H40.7358ZM40.715 10.1245H40.2135V11.0055H40.8166C41.0639 11.0055 41.2566 10.9663 41.3948 10.8878C41.5344 10.8094 41.6041 10.6968 41.6041 10.5499C41.6041 10.3885 41.5309 10.2772 41.3845 10.2161C41.238 10.155 41.0149 10.1245 40.715 10.1245Z" fill="white"/>
<path d="M3.86268 35.3713C3.48099 35.3713 3.14019 35.4351 2.84029 35.5629C2.54039 35.688 2.28684 35.8663 2.07964 36.0978C1.87244 36.3293 1.71431 36.6061 1.60525 36.9281C1.4962 37.2475 1.44167 37.6001 1.44167 37.986C1.44167 38.5183 1.52755 38.984 1.69931 39.3832C1.87107 39.7798 2.12871 40.0872 2.47223 40.3054C2.81848 40.5236 3.24925 40.6327 3.76453 40.6327C4.06443 40.6327 4.33706 40.6114 4.58244 40.5689C4.82781 40.5236 5.05546 40.4664 5.26539 40.3972V40.7565C5.06637 40.8283 4.84144 40.8869 4.59062 40.9321C4.34252 40.9774 4.05352 41 3.72363 41C3.12656 41 2.62491 40.8749 2.21868 40.6248C1.81518 40.3746 1.51119 40.0233 1.30672 39.5709C1.10224 39.1184 1 38.5902 1 37.986C1 37.5522 1.06407 37.1544 1.19221 36.7924C1.32035 36.4278 1.5071 36.1124 1.75248 35.8463C2.00057 35.5775 2.30184 35.3699 2.65626 35.2236C3.01069 35.0745 3.41419 35 3.86677 35C4.15303 35 4.42567 35.0279 4.68468 35.0838C4.94641 35.1371 5.19178 35.2156 5.42079 35.3194L5.25721 35.6786C5.03638 35.5722 4.81009 35.495 4.57835 35.4471C4.34661 35.3965 4.10805 35.3713 3.86268 35.3713Z" fill="white"/>
<path d="M9.79251 40.9202H6.52497V35.0838H9.79251V35.4551H6.94619V37.6667H9.63302V38.0379H6.94619V40.5489H9.79251V40.9202Z" fill="white"/>
<path d="M12.6061 35.0838C13.0805 35.0838 13.4758 35.1344 13.7921 35.2355C14.1111 35.3367 14.351 35.503 14.5118 35.7345C14.6727 35.9661 14.7531 36.2788 14.7531 36.6727C14.7531 36.9681 14.6972 37.2222 14.5854 37.4351C14.4764 37.6454 14.3251 37.8184 14.1315 37.9541C13.9379 38.0898 13.7144 38.1936 13.4608 38.2655L15.1007 40.9202H14.6018L13.0601 38.3812H11.5755V40.9202H11.1543V35.0838H12.6061ZM12.5652 35.4471H11.5755V38.018H12.7656C13.2536 38.018 13.634 37.9035 13.9066 37.6747C14.1819 37.4458 14.3196 37.1171 14.3196 36.6886C14.3196 36.2176 14.1751 35.8929 13.8861 35.7146C13.5971 35.5363 13.1568 35.4471 12.5652 35.4471Z" fill="white"/>
<path d="M19.8773 40.9202L19.0635 38.8563H16.5525L15.7223 40.9202H15.2929L17.6444 35.0639H18.0288L20.319 40.9202H19.8773ZM18.9285 38.485L18.1025 36.2974C18.0806 36.2415 18.0534 36.1697 18.0207 36.0818C17.9907 35.994 17.958 35.9009 17.9225 35.8024C17.8898 35.7039 17.8571 35.6108 17.8244 35.523C17.7971 35.6161 17.7671 35.7092 17.7344 35.8024C17.7017 35.8955 17.6703 35.986 17.6403 36.0739C17.6103 36.159 17.5817 36.2362 17.5545 36.3054L16.6957 38.485H18.9285Z" fill="white"/>
<path d="M23.7542 40.9202L21.5581 35.5309H21.5377C21.5431 35.6294 21.5472 35.7332 21.5499 35.8423C21.5554 35.9488 21.5595 36.0605 21.5622 36.1776C21.5649 36.2947 21.5663 36.4172 21.5663 36.5449V40.9202H21.1655V35.0838H21.8035L23.9219 40.2814H23.9464L26.0811 35.0838H26.7028V40.9202H26.2897V36.497C26.2897 36.3932 26.2911 36.2868 26.2938 36.1776C26.2965 36.0685 26.2993 35.9607 26.302 35.8543C26.3074 35.7452 26.3129 35.6401 26.3183 35.5389H26.2938L24.0895 40.9202H23.7542Z" fill="white"/>
<path d="M28.3958 40.9202V35.0838H28.817V40.9202H28.3958Z" fill="white"/>
<path d="M33.0456 35.3713C32.6639 35.3713 32.3231 35.4351 32.0232 35.5629C31.7233 35.688 31.4698 35.8663 31.2626 36.0978C31.0554 36.3293 30.8973 36.6061 30.7882 36.9281C30.6792 37.2475 30.6246 37.6001 30.6246 37.986C30.6246 38.5183 30.7105 38.984 30.8823 39.3832C31.054 39.7798 31.3117 40.0872 31.6552 40.3054C32.0014 40.5236 32.4322 40.6327 32.9475 40.6327C33.2474 40.6327 33.52 40.6114 33.7654 40.5689C34.0108 40.5236 34.2384 40.4664 34.4483 40.3972V40.7565C34.2493 40.8283 34.0244 40.8869 33.7736 40.9321C33.5255 40.9774 33.2365 41 32.9066 41C32.3095 41 31.8079 40.8749 31.4016 40.6248C30.9981 40.3746 30.6941 40.0233 30.4897 39.5709C30.2852 39.1184 30.183 38.5902 30.183 37.986C30.183 37.5522 30.247 37.1544 30.3752 36.7924C30.5033 36.4278 30.6901 36.1124 30.9354 35.8463C31.1835 35.5775 31.4848 35.3699 31.8392 35.2236C32.1936 35.0745 32.5971 35 33.0497 35C33.336 35 33.6086 35.0279 33.8676 35.0838C34.1294 35.1371 34.3747 35.2156 34.6037 35.3194L34.4402 35.6786C34.2193 35.5722 33.993 35.495 33.7613 35.4471C33.5296 35.3965 33.291 35.3713 33.0456 35.3713Z" fill="white"/>
<path d="M39 39.4152C39 39.7638 38.91 40.0566 38.7301 40.2934C38.5502 40.5276 38.3061 40.7046 37.9981 40.8244C37.69 40.9415 37.341 41 36.9511 41C36.7085 41 36.4877 40.988 36.2886 40.9641C36.0923 40.9428 35.9138 40.9135 35.7529 40.8762C35.5948 40.839 35.4503 40.7964 35.3194 40.7485V40.3373C35.5321 40.4172 35.7774 40.4877 36.0555 40.5489C36.3363 40.6075 36.6417 40.6367 36.9716 40.6367C37.2824 40.6367 37.5578 40.5928 37.7977 40.505C38.0403 40.4172 38.2312 40.2841 38.3702 40.1058C38.5093 39.9275 38.5788 39.7026 38.5788 39.4311C38.5788 39.1916 38.5202 38.996 38.4029 38.8443C38.2884 38.69 38.1153 38.5582 37.8836 38.4491C37.6518 38.3373 37.3601 38.2242 37.0084 38.1098C36.763 38.0273 36.5395 37.9408 36.3377 37.8503C36.1387 37.7572 35.9683 37.6507 35.8265 37.5309C35.6847 37.4085 35.5757 37.2621 35.4994 37.0918C35.4257 36.9188 35.3889 36.7152 35.3889 36.481C35.3889 36.159 35.4721 35.8889 35.6384 35.6707C35.8074 35.4498 36.0351 35.2834 36.3214 35.1717C36.6103 35.0572 36.9348 35 37.2947 35C37.5809 35 37.8522 35.0266 38.1085 35.0798C38.3675 35.1304 38.6169 35.2076 38.8569 35.3114L38.7096 35.6667C38.4697 35.5655 38.2298 35.491 37.9899 35.4431C37.75 35.3952 37.5128 35.3713 37.2783 35.3713C36.9975 35.3713 36.7467 35.4125 36.5258 35.495C36.3077 35.5749 36.1346 35.6959 36.0065 35.8583C35.8783 36.0206 35.8142 36.2255 35.8142 36.4731C35.8142 36.7285 35.8729 36.9348 35.9901 37.0918C36.1101 37.2488 36.2791 37.3792 36.4972 37.483C36.718 37.5868 36.9784 37.688 37.2783 37.7864C37.6327 37.9035 37.9381 38.0273 38.1944 38.1577C38.4506 38.2854 38.6483 38.4478 38.7873 38.6447C38.9291 38.8417 39 39.0985 39 39.4152Z" fill="white"/>
<path fill-rule="evenodd" clip-rule="evenodd" d="M41 12.8824C42.0396 12.8824 42.8824 12.0396 42.8824 11C42.8824 9.96041 42.0396 9.11765 41 9.11765C39.9604 9.11765 39.1176 9.96041 39.1176 11C39.1176 12.0396 39.9604 12.8824 41 12.8824ZM41 13C42.1046 13 43 12.1046 43 11C43 9.89543 42.1046 9 41 9C39.8954 9 39 9.89543 39 11C39 12.1046 39.8954 13 41 13Z" fill="white"/>
<rect x="7" width="4" height="4" fill="#8BC541"/>
<rect x="11" y="4" width="4" height="3" fill="#8BC541"/>
<rect x="16" y="1" width="2" height="2" fill="#8BC541"/>
<rect x="25" y="5" width="2" height="2" fill="#0E76BC"/>
<rect x="28" y="1" width="4" height="3" fill="#0E76BC"/>
<rect x="32" y="5" width="2" height="2" fill="#0E76BC"/>
</svg>
